<?xml version="1.0" encoding="UTF-8"?>
<svg version="1.1" xmlns="http://www.w3.org/2000/svg" width="1254" height="1254">
<path d="M0 0 C413.82 0 827.64 0 1254 0 C1254 413.82 1254 827.64 1254 1254 C840.18 1254 426.36 1254 0 1254 C0 840.18 0 426.36 0 0 Z " fill="#FDFDFD" transform="translate(0,0)"/>
<path d="M0 0 C2.14349586 0.00317627 4.28562667 -0.02046744 6.42895508 -0.0456543 C14.84813074 -0.08502936 22.50989914 0.73895888 30.5793457 3.31567383 C31.31080811 3.54536865 32.04227051 3.77506348 32.79589844 4.01171875 C63.16084676 14.09132347 86.24145938 34.82426406 100.8918457 63.06567383 C116.45274623 94.6150368 116.10052197 131.27303752 105.48876953 164.2824707 C94.09453005 197.359289 71.30415714 227.08866563 44.5793457 249.31567383 C44.04245117 249.7663623 43.50555664 250.21705078 42.95239258 250.68139648 C32.86988526 259.12212654 22.46928739 266.94753168 11.5793457 274.31567383 C10.92981934 274.75556641 10.28029297 275.19545898 9.61108398 275.64868164 C-9.7969771 288.69191785 -30.2748441 300.23929668 -50.62817383 311.72827148 C-53.80749538 313.53557597 -56.97107632 315.36913311 -60.13549805 317.20239258 C-62.41780448 318.51141472 -64.70035299 319.82001488 -66.9831543 321.12817383 C-68.59988037 322.07297607 -68.59988037 322.07297607 -70.24926758 323.03686523 C-71.7591626 323.89610596 -71.7591626 323.89610596 -73.29956055 324.77270508 C-74.19231689 325.28808838 -75.08507324 325.80347168 -76.00488281 326.33447266 C-78.7555015 327.45167695 -79.71575407 327.4218696 -82.4206543 326.31567383 C-84.66269111 325.05620295 -86.81840125 323.75994294 -88.9831543 322.37817383 C-89.673125 321.9419873 -90.3630957 321.50580078 -91.07397461 321.05639648 C-100.6299296 314.96842774 -110.02207405 308.62833034 -119.43101501 302.31678772 C-123.79867842 299.39110477 -128.18157241 296.48921606 -132.57147217 293.59701538 C-135.87543738 291.41979035 -139.17589754 289.23728191 -142.47619629 287.05450439 C-144.09936785 285.98288694 -145.72411464 284.91365147 -147.35046387 283.84686279 C-149.63855158 282.34543381 -151.92074431 280.83541277 -154.2019043 279.32348633 C-155.23133148 278.65268036 -155.23133148 278.65268036 -156.28155518 277.96832275 C-159.61353025 275.74781712 -162.289903 273.74292976 -164.4206543 270.31567383 C-163.4512793 270.0243457 -162.4819043 269.73301758 -161.4831543 269.43286133 C-136.29177336 261.77765343 -114.93005758 251.5719105 -94.92138672 234.08349609 C-87.35787953 227.51959227 -87.35787953 227.51959227 -81.8581543 226.94067383 C-78.4206543 227.31567383 -78.4206543 227.31567383 -75.9831543 228.31567383 C-74.05730384 230.78076241 -73.55374342 232.76289579 -73.7253418 235.88598633 C-76.53304006 245.69715666 -88.77419637 257.70474839 -97.2487793 263.12426758 C-97.96549805 263.51743164 -98.6822168 263.9105957 -99.4206543 264.31567383 C-82.76429842 258.01034184 -68.38498458 245.98864942 -55.7487793 233.72192383 C-50.22897161 228.46143597 -50.22897161 228.46143597 -45.6081543 227.62817383 C-40.50717803 228.72838439 -40.50717803 228.72838439 -38.4206543 231.31567383 C-37.47190451 236.69192265 -38.84624557 239.90822096 -41.8190918 244.21801758 C-49.77158676 254.63384634 -59.44410645 262.45193279 -70.22924805 269.80786133 C-72.33681145 271.25798517 -74.38490506 272.766835 -76.4206543 274.31567383 C-65.08405093 268.04175744 -54.3833818 261.63190015 -44.4206543 253.31567383 C-43.60338867 252.65051758 -42.78612305 251.98536133 -41.9440918 251.30004883 C-37.74355822 247.7490823 -34.23725819 243.98398777 -30.7956543 239.69067383 C-22.14598259 228.91231342 -22.14598259 228.91231342 -17.31518555 227.85473633 C-14.35763597 227.71467023 -12.01778015 227.97979054 -9.4206543 229.44067383 C-7.82068048 232.44062473 -7.86267116 233.90577688 -8.4206543 237.31567383 C-15.21018945 252.87144424 -31.59409236 268.92628936 -45.4206543 278.31567383 C-40.0992999 275.38335681 -35.12196114 272.14601518 -30.1706543 268.62817383 C-29.42485107 268.09925537 -28.67904785 267.57033691 -27.91064453 267.02539062 C-21.85955022 262.69776305 -16.05404587 258.18006274 -10.4206543 253.31567383 C-9.62916992 252.63504883 -8.83768555 251.95442383 -8.0222168 251.25317383 C-5.44440969 248.98403618 -2.92521059 246.6654946 -0.4206543 244.31567383 C0.10399414 243.82502441 0.62864258 243.334375 1.16918945 242.82885742 C10.76662625 233.77723329 18.90528015 224.03447949 26.5793457 213.31567383 C27.02761719 212.69611816 27.47588867 212.0765625 27.93774414 211.43823242 C40.02859704 194.58334551 49.05914087 176.31659577 54.5793457 156.31567383 C54.86527588 155.30706299 54.86527588 155.30706299 55.15698242 154.27807617 C61.17984689 132.07558153 59.40481464 106.85934339 48.5559082 86.56958008 C39.05987321 70.93677939 24.11049579 59.28226215 6.4296875 54.33813477 C-11.46200709 50.01617671 -30.28164511 51.37102963 -48.05737305 55.44067383 C-51.94479929 56.31001746 -55.44577079 56.48594996 -59.4206543 56.31567383 C-59.4206543 56.97567383 -59.4206543 57.63567383 -59.4206543 58.31567383 C-68.51366658 61.8425626 -77.6309397 65.29150589 -86.7956543 68.62817383 C-88.01381836 69.08256836 -89.23198242 69.53696289 -90.48706055 70.00512695 C-91.66913086 70.43374023 -92.85120117 70.86235352 -94.0690918 71.30395508 C-95.12273926 71.69107666 -96.17638672 72.07819824 -97.26196289 72.47705078 C-101.8962495 73.70743991 -105.86275158 73.83497473 -110.4206543 72.31567383 C-110.4206543 72.97567383 -110.4206543 73.63567383 -110.4206543 74.31567383 C-112.98215058 74.82135112 -115.54464894 75.32037514 -118.1081543 75.81567383 C-118.82938477 75.95875977 -119.55061523 76.1018457 -120.29370117 76.24926758 C-124.03716851 76.96719282 -127.58933456 77.60870019 -131.4206543 77.31567383 C-131.7506543 76.98567383 -132.0806543 76.65567383 -132.4206543 76.31567383 C-135.4242497 76.02940074 -138.42805536 75.86701628 -141.44018555 75.69458008 C-144.29571299 75.33155758 -146.04257572 74.90289025 -148.4206543 73.31567383 C-149.6706543 70.69067383 -149.6706543 70.69067383 -150.4206543 68.31567383 C-149.3581543 66.81567383 -149.3581543 66.81567383 -147.4206543 65.31567383 C-145.08778749 65.26901649 -142.75368419 65.27804431 -140.4206543 65.31567383 C-137.3729212 64.83263688 -134.40809224 64.08265473 -131.4206543 63.31567383 C-130.03040039 62.97149414 -130.03040039 62.97149414 -128.61206055 62.62036133 C-123.53494588 61.31147152 -119.01372651 59.89927695 -114.4206543 57.31567383 C-113.58791992 56.88254883 -112.75518555 56.44942383 -111.8972168 56.00317383 C-100.46724795 49.99069706 -92.13277839 42.25576812 -83.21044922 32.98901367 C-72.86535921 22.27594517 -62.43267519 13.04754335 -47.4206543 10.31567383 C-47.4206543 9.65567383 -47.4206543 8.99567383 -47.4206543 8.31567383 C-41.79880844 6.27877316 -36.2810202 4.78184931 -30.3894043 3.74536133 C-28.42785416 3.50289523 -28.42785416 3.50289523 -27.4206543 2.31567383 C-18.35600099 0.30161912 -9.24125478 -0.02855177 0 0 Z " fill="#55A04A" transform="translate(359.420654296875,424.684326171875)"/>
<path d="M0 0 C1.02287109 0.00483398 2.04574219 0.00966797 3.09960938 0.01464844 C6.10842218 0.03825808 9.11649051 0.07659194 12.125 0.125 C13.30884277 0.14385254 13.30884277 0.14385254 14.51660156 0.16308594 C29.04203865 0.48675416 41.9714076 4.12148386 55.125 10.125 C55.77758789 10.41391113 56.43017578 10.70282227 57.10253906 11.00048828 C92.05770235 26.48522383 92.05770235 26.48522383 97.125 39.125 C84.60786524 49.15889674 72.60127582 56.63301972 57.125 61.125 C56.35929688 61.3725 55.59359375 61.62 54.8046875 61.875 C49.6146795 63.34041402 44.35630493 63.32493101 39 63.375 C38.23518311 63.38442627 37.47036621 63.39385254 36.68237305 63.40356445 C31.11475266 63.37158397 25.25853673 63.25853673 21.125 59.125 C20.75 56.6875 20.75 56.6875 21.125 54.125 C24.22947253 51.10880631 26.90203091 50.64809344 31.125 50.1875 C40.05728286 48.98179253 48.16584283 46.31403009 56.125 42.125 C56.785 42.125 57.445 42.125 58.125 42.125 C58.125 41.465 58.125 40.805 58.125 40.125 C38.76636848 35.04335923 19.18736734 35.75393307 1.125 45.125 C-3.04723425 47.5798752 -6.98381289 50.24725577 -10.875 53.125 C-11.65617187 53.69605469 -12.43734375 54.26710938 -13.2421875 54.85546875 C-27.16954085 66.08160944 -37.44725029 85.67297485 -40.5625 103.140625 C-43.78793622 133.9435409 -33.06084091 163.26479057 -13.875 187.125 C-10.3652578 191.27620307 -6.64689265 195.21275785 -2.875 199.125 C-1.95267578 200.12466797 -1.95267578 200.12466797 -1.01171875 201.14453125 C8.00314686 210.67576148 19.25498258 216.85566523 31.125 222.125 C31.785 222.125 32.445 222.125 33.125 222.125 C32.72667969 221.568125 32.32835937 221.01125 31.91796875 220.4375 C27.62123155 214.24852574 23.3860308 208.00733808 24.125 200.125 C25.5839426 200.60230838 27.04213496 201.08191042 28.5 201.5625 C29.31210938 201.82933594 30.12421875 202.09617187 30.9609375 202.37109375 C33.125 203.125 33.125 203.125 35.125 204.125 C40.74200962 204.709169 45.41665743 204.51938651 50.125 201.125 C55.54282881 194.24852498 55.27909577 186.36907419 55.33032227 177.98876953 C55.34022186 176.9832756 55.35012146 175.97778168 55.36032104 174.94181824 C55.39181555 171.63050664 55.41664575 168.31918072 55.44140625 165.0078125 C55.46198618 162.70709874 55.48298293 160.40638868 55.50437927 158.10568237 C55.55949257 152.05919389 55.60894915 146.0126719 55.65722656 139.96612549 C55.70752011 133.79249093 55.76316514 127.61890485 55.81835938 121.4453125 C55.92580955 109.33858161 56.02678889 97.23180937 56.125 85.125 C65.695 85.125 75.265 85.125 85.125 85.125 C85.2383537 99.71240095 85.33025308 114.29952377 85.38406086 128.88726807 C85.40972118 135.66231174 85.44463467 142.4370601 85.50219727 149.21191406 C85.55781176 155.76066961 85.58649521 162.30923478 85.59938622 168.85821533 C85.60856269 171.34585369 85.62648073 173.83347698 85.65365028 176.32098389 C85.86347386 196.34353772 83.93240078 211.4293353 72.125 228.125 C71.66609375 228.79917969 71.2071875 229.47335937 70.734375 230.16796875 C64.53802789 238.32400395 53.69980273 244.836856 44.125 248.125 C43.11308594 248.47949219 42.10117188 248.83398438 41.05859375 249.19921875 C24.30664166 253.853779 5.77133277 249.70729044 -9.05834961 241.60253906 C-47.6583955 219.46010841 -81.04510769 181.85574746 -94.875 139.125 C-97.51088384 128.45407717 -98.35637968 118.15324109 -98.26611328 107.19628906 C-98.24991007 104.86204522 -98.26613544 102.52950726 -98.28515625 100.1953125 C-98.29819275 91.42417991 -97.6088108 83.54056482 -94.875 75.125 C-94.52260254 74.01439209 -94.52260254 74.01439209 -94.16308594 72.88134766 C-93.50766616 70.92118306 -92.80364502 68.99173436 -92.0625 67.0625 C-91.80315674 66.38477539 -91.54381348 65.70705078 -91.27661133 65.00878906 C-81.06974195 38.98728707 -60.62064883 18.89215528 -35.37939453 7.39819336 C-23.63349423 2.2963292 -12.72545592 -0.06250224 0 0 Z " fill="#9DC757" transform="translate(167.875,423.875)"/>
<path d="M0 0 C1.45055786 0.00628418 1.45055786 0.00628418 2.93041992 0.01269531 C16.90843302 0.23000007 29.66342036 2.63567442 41.5625 10.3125 C40.19070313 17.79502838 37.64086721 24.36854954 34.5625 31.3125 C30.46563846 30.73326774 26.85556624 29.80426958 23 28.3125 C16.6310366 25.85525455 11.008488 25.11019922 4.1875 25.0625 C3.45789063 25.041875 2.72828125 25.02125 1.9765625 25 C-4.28624942 24.95526563 -8.92634688 26.25206667 -13.875 30.3125 C-16.27929641 34.92874911 -16.15017641 39.21873912 -15.4375 44.3125 C-12.85210116 50.38256684 -8.26320287 52.79243627 -2.4375 55.3125 C0.22402266 56.25023855 2.88733097 57.16593232 5.5625 58.0625 C20.49052232 63.09156717 37.59483907 70.38851933 45.41015625 84.78515625 C50.59168668 96.14939417 49.75777321 109.75570964 45.5625 121.3125 C39.59613907 134.28608234 30.1924306 139.60868054 17.3125 144.5625 C-5.12962868 150.68308055 -27.92513781 145.79433152 -48.4375 136.3125 C-47.3656247 130.66079389 -45.86694829 125.25260499 -44 119.8125 C-43.58878906 118.6059375 -43.17757812 117.399375 -42.75390625 116.15625 C-42.31949219 115.2178125 -41.88507812 114.279375 -41.4375 113.3125 C-37.18679242 111.89559747 -34.58756566 113.80312539 -30.75 115.625 C-18.657029 121.3231988 -5.61235592 123.68920246 7.65625 120.58984375 C12.85892517 118.44807581 16.02644663 115.38460674 18.5625 110.3125 C18.94610392 104.55844125 18.48013095 101.41835416 15.5625 96.3125 C15.5625 95.6525 15.5625 94.9925 15.5625 94.3125 C15.00691406 94.03664063 14.45132813 93.76078125 13.87890625 93.4765625 C12.31791074 92.69211619 10.76326154 91.89492782 9.21484375 91.0859375 C2.91794435 87.84235479 -3.45478771 85.01189429 -10 82.3125 C-24.24041541 76.37515989 -36.93128884 70.50551879 -43.57421875 55.64453125 C-47.01829739 46.34084371 -46.49425451 33.70013273 -43.4375 24.3125 C-36.916007 11.97405203 -27.0948628 5.69731098 -14.25 1.1953125 C-9.43690532 0.08080492 -4.92427582 -0.02907953 0 0 Z " fill="#22783A" transform="translate(828.4375,499.6875)"/>
<path d="M0 0 C2.00606608 2.27390597 2.30608998 3.58190995 2.43359375 6.625 C1.65130367 9.34452478 0.81867606 11.77980085 -0.25390625 14.375 C-0.6396582 15.40173828 -0.6396582 15.40173828 -1.03320312 16.44921875 C-2.98284826 21.28740447 -2.98284826 21.28740447 -5.45703125 22.71875 C-8.28693883 22.59297633 -10.10961413 21.66618359 -12.62890625 20.375 C-23.68114213 15.13358298 -35.68536928 12.19808178 -47.83984375 15.51953125 C-51.57084672 17.03224449 -54.73044811 18.95308373 -56.56640625 22.625 C-57.02747274 27.32787818 -56.69243788 30.97046722 -54.0390625 35 C-47.95501215 41.71343487 -37.86158622 42.9609112 -29.40649414 44.75048828 C-13.74676638 48.13125097 -0.84031994 54.95659326 8.30859375 68.375 C12.32358434 76.40498117 11.44960119 88.13993282 9.85546875 96.74609375 C6.61169005 105.96137415 -0.78259889 113.43517819 -9.46484375 117.671875 C-10.15835938 117.98640625 -10.851875 118.3009375 -11.56640625 118.625 C-12.63890625 119.181875 -13.71140625 119.73875 -14.81640625 120.3125 C-34.71792925 127.27803305 -58.69449331 124.39130795 -77.56640625 115.625 C-81.29362313 113.7232672 -84.95196396 111.73282105 -88.56640625 109.625 C-87.8644854 104.69178166 -85.9310985 100.36525318 -84.00390625 95.8125 C-83.67455078 95.02423828 -83.34519531 94.23597656 -83.00585938 93.42382812 C-82.19681719 91.48916204 -81.38216773 89.55684247 -80.56640625 87.625 C-76.80198103 89.06860527 -73.23972059 90.77302959 -69.62890625 92.5625 C-57.23273363 98.25277453 -42.12257229 101.20508789 -28.59375 97.8984375 C-25.15203169 96.52175018 -23.01193763 95.11103423 -20.50390625 92.375 C-19.24580936 88.68458247 -18.81611303 85.43648955 -19.56640625 81.625 C-23.6614972 74.16608435 -31.52056915 72.11682853 -39.27490234 69.82421875 C-42.37026548 68.93881855 -45.46790122 68.06183885 -48.56640625 67.1875 C-62.17178692 63.34234267 -74.82279152 59.36110969 -82.48828125 46.6875 C-83.02195312 45.6665625 -83.02195312 45.6665625 -83.56640625 44.625 C-83.9325 43.93664062 -84.29859375 43.24828125 -84.67578125 42.5390625 C-87.46594071 33.40985654 -87.4851201 19.79348866 -83.12890625 11.25 C-76.18588759 1.13487957 -65.67244365 -5.98514522 -53.69140625 -8.75 C-35.58407276 -11.23224629 -15.548112 -10.6684901 0 0 Z " fill="#2B873D" transform="translate(358.56640625,513.375)"/>
<path d="M0 0 C5.95547956 4.54676091 10.25827192 10.89981575 12.625 18 C12.72185209 19.92645055 12.76043656 21.85603913 12.7668457 23.78491211 C12.77739738 25.56707375 12.77739738 25.56707375 12.78816223 27.38523865 C12.79232651 28.66963333 12.79649078 29.95402802 12.80078125 31.27734375 C12.81803643 33.2909845 12.83531496 35.30462538 12.85398388 37.31825352 C12.89957201 42.28823131 12.93733061 47.25809585 12.95092773 52.22827148 C12.95905572 55.01668552 12.97760396 57.80464897 13.00785828 60.59291077 C13.03607507 63.22042311 13.04890864 65.84815388 13.04499817 68.47581482 C13.06148911 69.66707474 13.07798004 70.85833466 13.0949707 72.08569336 C13.10083694 73.13365585 13.10670319 74.18161835 13.11274719 75.26133728 C13.75602136 78.70048089 14.90537578 79.86298316 17.625 82 C19.11 82.495 19.11 82.495 20.625 83 C20.625 88.61 20.625 94.22 20.625 100 C14.28122737 102.11459088 6.26348429 102.20363234 0.125 99.375 C-3.58190919 97.16813245 -5.95393692 94.5559364 -8.375 91 C-8.375 90.01 -8.375 89.02 -8.375 88 C-9.035 88 -9.695 88 -10.375 88 C-10.61992188 88.59683594 -10.86484375 89.19367188 -11.1171875 89.80859375 C-12.5999486 92.39191355 -14.01660968 93.44007601 -16.5 95.0625 C-17.22445312 95.54847656 -17.94890625 96.03445313 -18.6953125 96.53515625 C-29.03829116 102.18911689 -41.1774004 103.04446159 -52.6171875 100.19140625 C-59.96490267 96.88378992 -65.967833 90.69598234 -69.0703125 83.26953125 C-70.6244598 78.82607105 -70.85638518 74.67576599 -70.8125 70 C-70.8424707 68.86691406 -70.8424707 68.86691406 -70.87304688 67.7109375 C-70.86674118 60.37110985 -68.02066929 53.99316857 -63.08984375 48.5078125 C-48.70695567 35.8613551 -31.32684468 36.52450289 -13.375 37 C-13.52034671 29.20867408 -13.52034671 29.20867408 -15.9375 21.9375 C-23.26805822 16.11064603 -31.36670966 16.24517082 -40.375 17 C-44.14984065 17.73334389 -47.73707169 18.76322504 -51.375 20 C-52.591875 20.391875 -53.80875 20.78375 -55.0625 21.1875 C-55.825625 21.455625 -56.58875 21.72375 -57.375 22 C-60.50331428 15.5944041 -61.90145284 8.94970825 -63.375 2 C-46.10393667 -8.28914411 -17.43085899 -10.88123982 0 0 Z " fill="#7DB742" transform="translate(640.375,544)"/>
<path d="M0 0 C1.0725 0.0721875 2.145 0.144375 3.25 0.21875 C11.95326562 1.3066582 19.40889829 5.9638952 25.4375 12.25 C31.65485298 20.57844693 32.58406804 29.84476367 32.5390625 39.9296875 C32.55085541 41.12304718 32.56264832 42.31640686 32.57479858 43.54592896 C32.60982938 47.32242159 32.61920909 51.09835863 32.625 54.875 C32.64136195 58.67289835 32.66339468 62.47055188 32.69662476 66.26834106 C32.71620564 68.6221789 32.72559498 70.97612922 32.72354126 73.33004761 C32.73050018 74.3953067 32.73745911 75.4605658 32.74462891 76.55810547 C32.74588776 77.49089325 32.74714661 78.42368103 32.7484436 79.38473511 C33.03150668 82.32755407 33.59369367 84.39615794 35 87 C36.98 87.99 36.98 87.99 39 89 C39 94.61 39 100.22 39 106 C34.31670276 108.34164862 28.07968433 107.49625895 23 107 C19.82927068 105.81894008 17.52018716 104.23476837 15 102 C14.47535156 101.54625 13.95070313 101.0925 13.41015625 100.625 C12 99.3125 12 99.3125 10 97 C10 96.34 10 95.68 10 95 C9.07380859 95.79664063 9.07380859 95.79664063 8.12890625 96.609375 C7.28199219 97.31578125 6.43507813 98.0221875 5.5625 98.75 C4.32693359 99.79414062 4.32693359 99.79414062 3.06640625 100.859375 C-4.04806987 105.82591375 -10.29103845 107.69101778 -18.9375 107.5 C-20.25463989 107.48187256 -20.25463989 107.48187256 -21.59838867 107.46337891 C-30.69744754 107.18444817 -37.76471416 104.98665645 -44.53125 98.71484375 C-51.78426232 90.24656607 -51.84294787 79.84014308 -51.26074219 69.25927734 C-50.43782728 62.12888915 -46.00272868 57.58468794 -40.75 53.125 C-36.15166863 49.82939995 -31.3328804 47.80806561 -26 46 C-24.948125 45.608125 -23.89625 45.21625 -22.8125 44.8125 C-16.27035633 42.92254738 -9.80732902 42.87082108 -3.0625 42.9375 C-2.18787109 42.94201172 -1.31324219 42.94652344 -0.41210938 42.95117188 C1.72529047 42.96285166 3.86265463 42.98078311 6 43 C5.79822772 40.74737813 5.56250814 38.49777964 5.3125 36.25 C5.18488281 34.99703125 5.05726562 33.7440625 4.92578125 32.453125 C3.8108282 28.29439717 2.59383753 27.25206802 -1 25 C-1.61230469 24.59652344 -2.22460938 24.19304688 -2.85546875 23.77734375 C-12.70761493 20.20616508 -23.75705707 23.37109531 -33.0859375 26.90625 C-36 28 -36 28 -38 28 C-38.84549638 25.79567015 -39.67642814 23.58751467 -40.5 21.375 C-40.9640625 20.14523437 -41.428125 18.91546875 -41.90625 17.6484375 C-42.97140047 14.09539985 -43.62871214 11.65700897 -43 8 C-32.48475861 -1.15370615 -13.04003408 -0.92784858 0 0 Z " fill="#21783A" transform="translate(1127,538)"/>
<path d="M0 0 C0.57234375 0.43054688 1.1446875 0.86109375 1.734375 1.3046875 C9.01363505 7.05965805 11.7488618 13.33029814 15 22 C15 31.9 15 41.8 15 52 C-5.13 52 -25.26 52 -46 52 C-44.26089843 61.56505864 -43.19825055 66.9093969 -36.5625 73.375 C-31.28297386 76.72299219 -26.08789762 77.3868774 -19.9375 77.375 C-18.82628784 77.37584595 -18.82628784 77.37584595 -17.69262695 77.37670898 C-10.66807493 77.23849879 -4.56923207 75.42331672 2 73 C3.32785319 72.6454654 4.65934045 72.30252413 6 72 C12.30912477 85.76536313 12.30912477 85.76536313 10 92 C7.5234375 93.51171875 7.5234375 93.51171875 4.375 94.6875 C3.35148438 95.08324219 2.32796875 95.47898437 1.2734375 95.88671875 C-0.34691406 96.43779297 -0.34691406 96.43779297 -2 97 C-3.01191406 97.37125 -4.02382813 97.7425 -5.06640625 98.125 C-10.66631045 99.67339979 -16.55192292 99.32817931 -22.3125 99.3125 C-23.48490234 99.32861328 -24.65730469 99.34472656 -25.86523438 99.36132812 C-39.02143186 99.36867385 -49.7931418 95.83800525 -59.6875 86.9375 C-71.41844513 74.31910749 -73.73331858 58.37080603 -73.28125 41.87890625 C-72.53044812 25.76482089 -66.95152375 12.06549645 -55 1 C-39.66985937 -11.01484193 -15.71103966 -12.42268252 0 0 Z " fill="#22783A" transform="translate(958,546)"/>
<path d="M0 0 C0.79970215 -0.01023193 1.5994043 -0.02046387 2.42333984 -0.03100586 C11.70382434 0.10595072 19.23212437 3.57769648 26.375 9.4375 C32.97262845 16.36500987 35.86022902 24.07629792 35.71557617 33.59765625 C35.71623329 34.75520668 35.71623329 34.75520668 35.71690369 35.93614197 C35.71483284 38.45769582 35.69158378 40.97856397 35.66796875 43.5 C35.66236671 45.25976193 35.65809948 47.01952857 35.65510559 48.77929688 C35.64370468 53.38907002 35.61427892 57.9985552 35.58099365 62.60821533 C35.55018978 67.32080186 35.53657829 72.03343535 35.52148438 76.74609375 C35.48940418 85.97670874 35.4366756 95.20703526 35.375 104.4375 C26.795 104.4375 18.215 104.4375 9.375 104.4375 C9.3656543 102.41947266 9.35630859 100.40144531 9.34667969 98.32226562 C9.3128158 91.63256037 9.25721502 84.94316054 9.19109726 78.25370026 C9.15169515 74.20036775 9.11947137 70.14725011 9.10400391 66.09375 C9.08878896 62.17717978 9.05425909 58.26120057 9.00669098 54.34489441 C8.99192672 52.85553646 8.98396184 51.3660941 8.98311615 49.87666321 C8.97401917 41.88411138 8.94682898 35.26846265 4.375 28.4375 C0.48297429 25.07771712 -3.02395256 25.00507407 -8.0625 25 C-9.33996094 24.98066406 -10.61742187 24.96132813 -11.93359375 24.94140625 C-17.2309425 25.65332508 -20.09606777 27.86530989 -23.76446533 31.63749695 C-26.10673445 35.16248404 -26.14097357 37.31077932 -26.17089844 41.52270508 C-26.18123611 42.21593872 -26.19157379 42.90917236 -26.20222473 43.62341309 C-26.23158586 45.90152478 -26.23315038 48.17874546 -26.234375 50.45703125 C-26.2493613 52.04173978 -26.2660894 53.62643272 -26.28448486 55.21110535 C-26.3281207 59.37198617 -26.34814894 63.53265632 -26.36322021 67.69372559 C-26.38280502 71.94373004 -26.42477344 76.19350743 -26.46484375 80.44335938 C-26.54010523 88.77470792 -26.58835116 97.10589203 -26.625 105.4375 C-35.535 105.4375 -44.445 105.4375 -53.625 105.4375 C-53.625 71.4475 -53.625 37.4575 -53.625 2.4375 C-46.365 2.4375 -39.105 2.4375 -31.625 2.4375 C-30.635 5.4075 -29.645 8.3775 -28.625 11.4375 C-28.09132813 10.97859375 -27.55765625 10.5196875 -27.0078125 10.046875 C-18.2683358 2.8496589 -11.27426877 0.11176609 0 0 Z " fill="#7DB843" transform="translate(727.625,537.5625)"/>
<path d="M0 0 C8.91 0 17.82 0 27 0 C28.77117188 5.94580078 28.77117188 5.94580078 30.578125 12.01171875 C31.53080576 15.20865665 32.48360292 18.4055598 33.43647766 21.60243988 C34.43630421 24.95695735 35.43593436 28.31153304 36.43505859 31.66625977 C37.58626877 35.53160525 38.73842895 39.39666702 39.890625 43.26171875 C40.24183411 44.44142746 40.59304321 45.62113617 40.95489502 46.83659363 C43.26152291 54.57079224 45.6141316 62.28988157 48 70 C50.38755311 65.37853403 52.00613053 60.89511219 53.3125 55.875 C53.74435228 54.27166534 54.17801511 52.66881749 54.61328125 51.06640625 C54.83838379 50.23641113 55.06348633 49.40641602 55.29541016 48.55126953 C58.44610992 37.14281058 61.95431484 25.83649904 65.82421875 14.65234375 C67.38048827 9.81808461 68.66373561 4.89963608 70 0 C78.58 0 87.16 0 96 0 C95.18830649 4.87016108 94.05165356 9.08518902 92.3828125 13.671875 C91.99607864 14.75556366 91.99607864 14.75556366 91.60153198 15.86114502 C90.78076702 18.159163 89.95337036 20.45471374 89.125 22.75 C84.6124213 35.19484467 84.6124213 35.19484467 80.63574219 47.81738281 C79.54090224 51.57616512 78.30136393 55.28666195 77.0625 59 C76.80162598 59.7832666 76.54075195 60.5665332 76.27197266 61.37353516 C74.64630225 66.20641959 72.88505918 70.94753267 70.92578125 75.65625 C69.85622815 78.36397938 68.9584339 81.10510078 68.0625 83.875 C65.99323874 90.0200789 63.49389304 96.01465671 61 102 C52.09 102 43.18 102 34 102 C25.90168506 78.99030394 17.89636289 55.95238122 10.06420898 32.85058594 C9.46860134 31.09569834 8.87297997 29.3408154 8.27734375 27.5859375 C7.99547714 26.75328369 7.71361053 25.92062988 7.42320251 25.06274414 C6.13848811 21.28165752 4.83369758 17.51155978 3.45751953 13.76269531 C3.1031356 12.79476547 3.1031356 12.79476547 2.74159241 11.80728149 C2.11737688 10.11476571 1.48401758 8.42562979 0.84985352 6.73681641 C0 4 0 4 0 0 Z " fill="#207739" transform="translate(977,541)"/>
<path d="M0 0 C8.91 0 17.82 0 27 0 C27.04522662 14.5779304 27.0820355 29.15581693 27.10362434 43.73380184 C27.11391688 50.50330564 27.12793833 57.2727626 27.15087891 64.04223633 C27.17301684 70.57800177 27.18457703 77.11373687 27.18975449 83.64953804 C27.19344312 86.14012987 27.20064609 88.63071912 27.21146011 91.12129021 C27.22602737 94.61599298 27.22797573 98.11049624 27.22705078 101.60522461 C27.23424133 102.62950058 27.24143188 103.65377655 27.24884033 104.70909119 C27.21597394 116.22316474 24.92279813 125.20887041 17.21484375 134.046875 C9.43774691 141.52055328 0.25830659 143.48445508 -10.27148438 143.44921875 C-11.44001953 143.42472656 -12.60855469 143.40023437 -13.8125 143.375 C-15.59430664 143.37306641 -15.59430664 143.37306641 -17.41210938 143.37109375 C-23.08404594 143.31383359 -27.64164078 143.00345179 -33 141 C-33.2248832 135.5957757 -32.4886411 131.18724757 -31 126.0625 C-30.80921875 125.37865234 -30.6184375 124.69480469 -30.421875 123.99023438 C-29.95595063 122.32455474 -29.47911589 120.66193325 -29 119 C-27.04707031 119.05220703 -27.04707031 119.05220703 -25.0546875 119.10546875 C-23.32813796 119.13361901 -21.60157439 119.16091784 -19.875 119.1875 C-19.0190625 119.21263672 -18.163125 119.23777344 -17.28125 119.26367188 C-12.13698153 119.32302882 -8.31539969 119.12833686 -4 116 C-0.37624747 110.58134575 -0.55867002 105.50631912 -0.56762695 99.22119141 C-0.5574353 98.14742249 -0.54724365 97.07365356 -0.53674316 95.96734619 C-0.50662076 92.42869849 -0.49734809 88.89032155 -0.48828125 85.3515625 C-0.47143406 82.89390158 -0.45328377 80.43624927 -0.43388367 77.97860718 C-0.38638219 71.5178293 -0.35657354 65.05708636 -0.33044434 58.59619141 C-0.30063976 52.00025535 -0.254109 45.40443964 -0.20898438 38.80859375 C-0.12294933 25.87244494 -0.05715089 12.9363087 0 0 Z " fill="#7EB843" transform="translate(531,502)"/>
<path d="M0 0 C0.74056641 0.00451172 1.48113281 0.00902344 2.24414062 0.01367188 C4.05862899 0.02537825 5.87307534 0.04331102 7.6875 0.0625 C7.79611833 2.77192393 7.87508577 5.476939 7.9375 8.1875 C7.98777344 9.32832031 7.98777344 9.32832031 8.0390625 10.4921875 C8.13148701 15.85280881 7.25444215 18.81675019 3.6875 23.0625 C-2.90108434 28.03755348 -8.24396916 28.71318797 -16.3125 28.0625 C-19.54137109 26.78440519 -20.86146002 25.57575239 -23.125 23 C-24.88493348 18.64648033 -25.0981897 14.68769222 -24.3125 10.0625 C-22.0238338 5.3678001 -18.06034884 2.94185683 -13.3125 1.0625 C-8.89285295 -0.10014589 -4.53636426 -0.05270128 0 0 Z " fill="#F8FAF9" transform="translate(1125.3125,597.9375)"/>
<path d="M0 0 C1.31194336 0.02030273 1.31194336 0.02030273 2.65039062 0.04101562 C4.78803086 0.07605891 6.92534984 0.12985459 9.0625 0.1875 C9.1981886 3.06409826 9.29690753 5.93423463 9.375 8.8125 C9.41689453 9.62074219 9.45878906 10.42898438 9.50195312 11.26171875 C9.58671063 15.43178797 9.46184524 18.28519286 6.80859375 21.625 C2.02141241 26.09212797 -3.04547845 28.35464056 -9.625 28.6875 C-14.00978092 28.45793032 -16.63918751 27.17168749 -19.9375 24.1875 C-22.53137221 20.38315409 -23.61024645 16.86584751 -23.4140625 12.2109375 C-22.4968671 8.31661607 -20.04987461 5.5933473 -16.9375 3.1875 C-11.18688153 0.05079901 -6.4714743 -0.19192966 0 0 Z " fill="#F9FBF7" transform="translate(617.9375,597.8125)"/>
<path d="M0 0 C4.57065885 1.83117016 8.59381045 4.61224259 11 9 C12 13 12 13 12 23 C-0.21 23 -12.42 23 -25 23 C-23.79992005 12.19928041 -22.01082768 8.38497144 -14.19921875 1.38671875 C-9.90718348 -1.31962676 -4.87169622 -0.67367886 0 0 Z " fill="#F7FAF8" transform="translate(937,558)"/>
<path d="M0 0 C2.51625 -0.0825 5.0325 -0.165 7.625 -0.25 C8.79603271 -0.30462402 8.79603271 -0.30462402 9.99072266 -0.36035156 C16.32423702 -0.4600413 19.73771621 1.91631756 24.375 6.1875 C26.67985214 10.17666717 26.77139674 13.49886029 26 18 C24.03986291 22.15549062 21.52624332 25.12835709 17.4140625 27.3203125 C11.83598536 28.89083907 5.70994389 28.20212191 0 28 C0 18.76 0 9.52 0 0 Z " fill="#50A45C" transform="translate(1137,698)"/>
<path d="M0 0 C4.34468141 2.1723407 7.60032162 4.75441518 10 9 C10.74210617 13.1405363 11.00730569 17.11995236 8.9765625 20.91015625 C6.19624155 24.33921876 3.51773795 26.80749652 -0.92578125 27.37109375 C-11.19631339 27.57247673 -11.19631339 27.57247673 -14.6875 24.75 C-18.47174892 20.2498121 -19.45978027 17.06142698 -19.31640625 11.25 C-18.67993195 6.72396054 -16.19231612 4.05204364 -12.875 1.125 C-8.55706436 -0.56462699 -4.57283743 -0.66060252 0 0 Z " fill="#3C9748" transform="translate(645,698)"/>
<path d="M0 0 C3.74358093 2.27585952 7.02044301 5.04088602 9 9 C9.54280937 15.40515061 8.8679143 18.80885186 5 24 C0.60365755 27.32406381 -3.9364529 27.62050519 -9.30078125 27.49609375 C-13.63593714 26.69932848 -16.24844987 24.33993192 -19 21 C-20.98363675 17.0327265 -20.54751158 12.3131746 -20 8 C-16.07360274 0.00585518 -8.1145413 -1.50890231 0 0 Z " fill="#31913D" transform="translate(893,698)"/>
<path d="M0 0 C2.51625 -0.103125 5.0325 -0.20625 7.625 -0.3125 C8.79603271 -0.38078003 8.79603271 -0.38078003 9.99072266 -0.45043945 C13.86479056 -0.52666191 16.35833539 -0.15936123 19.48046875 2.23828125 C22.80838773 5.88609321 22.80838773 5.88609321 22.6875 9.5 C22.4463714 13.11692901 22.01248989 13.9837969 19.6875 17 C16.295162 19.5245306 13.9319665 20.13003224 9.8125 20.0625 C7.9253125 20.0315625 7.9253125 20.0315625 6 20 C6 22.64 6 25.28 6 28 C4.02 28 2.04 28 0 28 C0 18.76 0 9.52 0 0 Z " fill="#58A763" transform="translate(569,698)"/>
<path d="M0 0 C2.35125 -0.061875 4.7025 -0.12375 7.125 -0.1875 C7.85348145 -0.21481201 8.58196289 -0.24212402 9.33251953 -0.27026367 C13.99433069 -0.32905787 17.04822061 0.56950711 21 3 C23.14081795 5.60621315 22.99959667 7.02218336 22.9375 10.4375 C21.76383888 14.89741225 20.82677646 16.39779201 17 19 C13.33334727 19.69619988 9.72745727 19.92819259 6 20 C5.67 22.31 5.34 24.62 5 27 C3.35 27 1.7 27 0 27 C0 18.09 0 9.18 0 0 Z " fill="#58A561" transform="translate(598,698)"/>
<path d="M0 0 C5 0 5 0 6.76098633 1.46875 C7.53865356 2.47421875 7.53865356 2.47421875 8.33203125 3.5 C8.90244141 4.221875 9.47285156 4.94375 10.06054688 5.6875 C10.92776367 6.8321875 10.92776367 6.8321875 11.8125 8 C12.7087207 9.1446875 12.7087207 9.1446875 13.62304688 10.3125 C15.09581611 12.19764462 16.54975048 14.09747647 18 16 C18.33 10.72 18.66 5.44 19 0 C20.98 0 22.96 0 25 0 C25 9.24 25 18.48 25 28 C20 28 20 28 18.1472168 26.43945312 C17.58687744 25.72724609 17.02653809 25.01503906 16.44921875 24.28125 C15.83369141 23.51425781 15.21816406 22.74726562 14.58398438 21.95703125 C13.95814453 21.14621094 13.33230469 20.33539062 12.6875 19.5 C12.04232422 18.68917969 11.39714844 17.87835937 10.73242188 17.04296875 C9.14133657 15.03937985 7.56885555 13.0210426 6 11 C5.67 16.28 5.34 21.56 5 27 C3.35 27 1.7 27 0 27 C0 18.09 0 9.18 0 0 Z " fill="#32913D" transform="translate(1047,698)"/>
<path d="M0 0 C1.65 0 3.3 0 5 0 C5 8.91 5 17.82 5 27 C0 27 0 27 -1.76098633 25.53125 C-2.53865356 24.52578125 -2.53865356 24.52578125 -3.33203125 23.5 C-4.18764648 22.4171875 -4.18764648 22.4171875 -5.06054688 21.3125 C-5.63869141 20.549375 -6.21683594 19.78625 -6.8125 19 C-7.40998047 18.236875 -8.00746094 17.47375 -8.62304688 16.6875 C-10.09581611 14.80235538 -11.54975048 12.90252353 -13 11 C-13.33 16.28 -13.66 21.56 -14 27 C-15.65 27 -17.3 27 -19 27 C-19 18.42 -19 9.84 -19 1 C-14 1 -14 1 -12.19140625 2.46875 C-11.65386719 3.1390625 -11.11632812 3.809375 -10.5625 4.5 C-9.9746875 5.221875 -9.386875 5.94375 -8.78125 6.6875 C-6.15161507 10.10141201 -3.54587502 13.52270729 -1 17 C-0.67 11.39 -0.34 5.78 0 0 Z " fill="#308F38" transform="translate(753,698)"/>
<path d="M0 0 C5 0 5 0 6.65332031 1.31347656 C7.12350586 1.91643555 7.59369141 2.51939453 8.078125 3.140625 C8.59890625 3.79933594 9.1196875 4.45804688 9.65625 5.13671875 C10.1821875 5.83410156 10.708125 6.53148437 11.25 7.25 C12.06210937 8.27287109 12.06210937 8.27287109 12.890625 9.31640625 C15.38577841 12.52891627 17.21944801 14.9451554 18 19 C18.66 19 19.32 19 20 19 C20 13.06 20 7.12 20 1 C21.32 1 22.64 1 24 1 C24 9.58 24 18.16 24 27 C19 27 19 27 16.90234375 24.98828125 C16.25394531 24.10527344 15.60554687 23.22226562 14.9375 22.3125 C14.28652344 21.44238281 13.63554688 20.57226562 12.96484375 19.67578125 C12.31644531 18.79277344 11.66804687 17.90976562 11 17 C10.25878906 16.10667969 9.51757812 15.21335937 8.75390625 14.29296875 C7 12 7 12 7 10 C6.34 10 5.68 10 5 10 C5 15.61 5 21.22 5 27 C3.35 27 1.7 27 0 27 C0 18.09 0 9.18 0 0 Z " fill="#2D913A" transform="translate(997,698)"/>
<path d="M0 0 C1.98 0 3.96 0 6 0 C6.01981934 0.59538574 6.03963867 1.19077148 6.06005859 1.80419922 C6.15516126 4.49492153 6.26489842 7.18485148 6.375 9.875 C6.4059375 10.81214844 6.436875 11.74929688 6.46875 12.71484375 C6.50742187 13.61074219 6.54609375 14.50664063 6.5859375 15.4296875 C6.6173584 16.25710449 6.6487793 17.08452148 6.68115234 17.93701172 C6.82599137 20.21986085 6.82599137 20.21986085 9 22 C12.5 22.33333333 12.5 22.33333333 16 22 C18.43914492 19.56085508 18.28662523 18.78553569 18.4140625 15.4296875 C18.45273437 14.53378906 18.49140625 13.63789062 18.53125 12.71484375 C18.5621875 11.77769531 18.593125 10.84054687 18.625 9.875 C18.66367187 8.93011719 18.70234375 7.98523438 18.7421875 7.01171875 C18.83661346 4.67467625 18.92218394 2.33764499 19 0 C20.98 0 22.96 0 25 0 C25.14622024 3.20784721 25.23436651 6.41482961 25.3125 9.625 C25.35439453 10.52863281 25.39628906 11.43226563 25.43945312 12.36328125 C25.52149425 16.85913464 25.52013202 20.00442325 22.60546875 23.5859375 C18.23127895 27.63878502 14.74939207 27.44671544 8.9296875 27.42578125 C5.76644013 26.96605597 4.80574777 26.54874211 2.8125 24.125 C0.69685197 20.47733098 -0.12527064 18.79059595 -0.09765625 14.6484375 C-0.09443359 13.79765625 -0.09121094 12.946875 -0.08789062 12.0703125 C-0.07951172 11.18085937 -0.07113281 10.29140625 -0.0625 9.375 C-0.05798828 8.4778125 -0.05347656 7.580625 -0.04882812 6.65625 C-0.03702591 4.43743352 -0.02056155 2.21874982 0 0 Z " fill="#3A9747" transform="translate(536,698)"/>
<path d="M0 0 C6.6 0 13.2 0 20 0 C20 1.65 20 3.3 20 5 C15.05 5 10.1 5 5 5 C5 7.31 5 9.62 5 12 C9.29 12 13.58 12 18 12 C18 13.32 18 14.64 18 16 C13.71 16 9.42 16 5 16 C5 18.31 5 20.62 5 23 C10.28 23 15.56 23 21 23 C21 24.32 21 25.64 21 27 C14.07 27 7.14 27 0 27 C0 18.09 0 9.18 0 0 Z " fill="#339341" transform="translate(1081,698)"/>
<path d="M0 0 C1.65 0 3.3 0 5 0 C5 3.96 5 7.92 5 12 C9.62 12 14.24 12 19 12 C19 8.04 19 4.08 19 0 C20.65 0 22.3 0 24 0 C24 8.91 24 17.82 24 27 C22.35 27 20.7 27 19 27 C19 23.37 19 19.74 19 16 C14.38 16 9.76 16 5 16 C5 19.63 5 23.26 5 27 C3.35 27 1.7 27 0 27 C0 18.09 0 9.18 0 0 Z " fill="#339441" transform="translate(841,698)"/>
<path d="M0 0 C6.6 0 13.2 0 20 0 C20 1.65 20 3.3 20 5 C15.05 5 10.1 5 5 5 C5 7.31 5 9.62 5 12 C9.29 12 13.58 12 18 12 C18 13.32 18 14.64 18 16 C13.71 16 9.42 16 5 16 C5 18.31 5 20.62 5 23 C9.95 23 14.9 23 20 23 C20 24.32 20 25.64 20 27 C13.4 27 6.8 27 0 27 C0 18.09 0 9.18 0 0 Z " fill="#268936" transform="translate(937,698)"/>
<path d="M0 0 C2.30859375 1.0234375 2.30859375 1.0234375 4 2 C3.67 3.32 3.34 4.64 3 6 C-0.96 6 -4.92 6 -9 6 C-9 6.99 -9 7.98 -9 9 C-8.15695312 9.33773437 -7.31390625 9.67546875 -6.4453125 10.0234375 C-5.34960938 10.46945312 -4.25390625 10.91546875 -3.125 11.375 C-2.03445313 11.81585937 -0.94390625 12.25671875 0.1796875 12.7109375 C3 14 3 14 5 16 C5.51675938 19.87569534 5.31754464 21.52368304 3.125 24.8125 C0.22296004 27.79989408 -0.49282705 27.96618847 -4.75 28.25 C-8.80383838 28.19092767 -11.59966629 27.32217912 -15 25 C-15.875 22.8125 -15.875 22.8125 -16 21 C-12 21 -12 21 -10 22 C-8.62657169 22.0689472 -7.24997898 22.08467708 -5.875 22.0625 C-4.59625 22.041875 -3.3175 22.02125 -2 22 C-2 20.68 -2 19.36 -2 18 C-2.68707031 17.74605469 -3.37414062 17.49210938 -4.08203125 17.23046875 C-4.98308594 16.88628906 -5.88414062 16.54210937 -6.8125 16.1875 C-7.70582031 15.85105469 -8.59914063 15.51460937 -9.51953125 15.16796875 C-11.97006459 14.01409557 -13.36355177 13.13956338 -15 11 C-15.5 7.5625 -15.5 7.5625 -15 4 C-11.15426409 -0.99945669 -5.83199433 -0.81553091 0 0 Z " fill="#32913E" transform="translate(924,698)"/>
<path d="M0 0 C2.34375 1.0234375 2.34375 1.0234375 4 2 C3.67 3.32 3.34 4.64 3 6 C-0.96 6 -4.92 6 -9 6 C-9 6.99 -9 7.98 -9 9 C-8.24074219 9.25394531 -7.48148438 9.50789062 -6.69921875 9.76953125 C-5.70535156 10.11371094 -4.71148438 10.45789063 -3.6875 10.8125 C-2.20830078 11.31716797 -2.20830078 11.31716797 -0.69921875 11.83203125 C1.90579067 12.95923504 3.29545687 13.76314107 5 16 C5.67051907 19.85548465 5.29150589 21.52109747 3.25 24.875 C-1.55382755 28.01596417 -6.40257363 27.92392182 -12 27 C-14.37109375 25.46875 -14.37109375 25.46875 -16 24 C-15.67 22.68 -15.34 21.36 -15 20 C-14.34 20.33 -13.68 20.66 -13 21 C-9.13938967 22.28687011 -6.05849717 22.13757618 -2 22 C-2 20.68 -2 19.36 -2 18 C-3.15628906 17.61908203 -3.15628906 17.61908203 -4.3359375 17.23046875 C-5.33882812 16.88628906 -6.34171875 16.54210937 -7.375 16.1875 C-8.37273438 15.85105469 -9.37046875 15.51460937 -10.3984375 15.16796875 C-13 14 -13 14 -15 11 C-15.40713754 7.26790586 -15.48317209 4.89731959 -13.6875 1.5625 C-9.39921062 -0.9306915 -4.84377645 -0.61259526 0 0 Z " fill="#268D38" transform="translate(524,698)"/>
<path d="M0 0 C0.95648437 -0.02578125 1.91296875 -0.0515625 2.8984375 -0.078125 C6.00392147 0.29560086 7.33036066 1.18373709 9.625 3.25 C9.295 4.57 8.965 5.89 8.625 7.25 C8.06941406 7.09144531 7.51382813 6.93289063 6.94140625 6.76953125 C4.43844012 6.20815773 2.12608813 6.01096633 -0.4375 5.9375 C-1.29472656 5.90011719 -2.15195312 5.86273437 -3.03515625 5.82421875 C-5.51234416 6.04355345 -5.51234416 6.04355345 -7.15625 8.0546875 C-8.95808673 11.30030366 -8.82330975 13.59947774 -8.375 17.25 C-7.12112994 20.33817732 -7.12112994 20.33817732 -4.375 22.25 C-1.25289286 22.66914691 1.45107335 22.48337696 4.625 22.25 C4.955 19.28 5.285 16.31 5.625 13.25 C7.275 13.25 8.925 13.25 10.625 13.25 C10.625 17.21 10.625 21.17 10.625 25.25 C5.10665983 27.63630926 -0.45970475 28.12015487 -6.375 27.25 C-10.33737149 25.28058367 -12.67354866 22.28530052 -14.375 18.25 C-15.27178884 14.0279499 -15.25069902 10.61270658 -12.87890625 6.921875 C-8.71566839 2.10948362 -6.45790792 0.10388056 0 0 Z " fill="#33943F" transform="translate(780.375,697.75)"/>
<path d="M0 0 C3.94875513 2.45865885 5.66872408 3.98776803 7.125 8.4375 C6.97177911 12.80429526 5.76736304 14.67916436 3 18 C-0.23415916 19.61707958 -3.50375265 19.56822376 -7 19 C-10.14249107 16.97047452 -11.63745366 15.53044369 -12.51171875 11.83984375 C-12.75802839 8.56118881 -12.73398271 6.08469117 -10.85546875 3.30859375 C-7.42328249 0.12997271 -4.53121574 -0.94400328 0 0 Z " fill="#F4F8F5" transform="translate(890,702)"/>
<path d="M0 0 C2.421875 0.47265625 2.421875 0.47265625 5.609375 2.41015625 C7.81165899 6.13125679 7.88101776 8.19583832 7.12109375 12.37890625 C6.421875 14.47265625 6.421875 14.47265625 4.359375 17.03515625 C0.5629873 18.892963 -2.44030518 19.56550785 -6.578125 18.47265625 C-10.15055469 15.42120589 -11.40668998 13.55841138 -12.140625 8.91015625 C-10.88839096 1.25761487 -7.28976546 -0.42056339 0 0 Z " fill="#F6F9F6" transform="translate(642.578125,702.52734375)"/>
<path d="M0 0 C6.27 0 12.54 0 19 0 C19 0.99 19 1.98 19 3 C14.05 3 9.1 3 4 3 C4 5.64 4 8.28 4 11 C8.29 11 12.58 11 17 11 C17 12.32 17 13.64 17 15 C12.71 15 8.42 15 4 15 C4 17.31 4 19.62 4 22 C9.28 22 14.56 22 20 22 C20 23.32 20 24.64 20 26 C13.4 26 6.8 26 0 26 C0 17.42 0 8.84 0 0 Z " fill="#20862D" transform="translate(1110,699)"/>
<path d="M0 0 C4.62 0 9.24 0 14 0 C14 0.99 14 1.98 14 3 C11.03 3 8.06 3 5 3 C5 6.63 5 10.26 5 14 C6.77375 13.95875 8.5475 13.9175 10.375 13.875 C13.3984375 13.8046875 13.3984375 13.8046875 16 14 C18 16 18 16 18.4375 17.875 C19.1135254 20.42887372 20.40635188 21.92132854 22 24 C22 24.66 22 25.32 22 26 C20.02 26 18.04 26 16 26 C15.484375 24.865625 14.96875 23.73125 14.4375 22.5625 C13.42041851 20.60110246 13.42041851 20.60110246 12 19 C8.36852515 17.9434891 8.36852515 17.9434891 5 18 C5 20.64 5 23.28 5 26 C3.35 26 1.7 26 0 26 C0 17.42 0 8.84 0 0 Z " fill="#369242" transform="translate(663,699)"/>
<path d="M0 0 C0.04673718 14.64700032 0.08199727 29.29399077 0.10362434 43.94105053 C0.11393343 50.7420571 0.12798673 57.54301732 0.15087891 64.34399414 C0.17295508 70.90567738 0.18456472 77.46732507 0.18975449 84.02904701 C0.1934536 86.5341092 0.2006769 89.03916872 0.21146011 91.54421043 C0.22594989 95.04930727 0.22797897 98.55420427 0.22705078 102.05932617 C0.23424133 103.09798325 0.24143188 104.13664032 0.24884033 105.20677185 C0.246091 106.16444458 0.24334167 107.12211731 0.24050903 108.10881042 C0.24235262 108.93750232 0.24419621 109.76619421 0.24609566 110.61999798 C-0.03677192 113.35562287 -0.87830577 115.50110266 -2 118 C-2.33 118 -2.66 118 -3 118 C-2.67 79.72 -2.34 41.44 -2 2 C-6.62 2 -11.24 2 -16 2 C-16 1.67 -16 1.34 -16 1 C-13.70839646 0.83246763 -11.41671509 0.66599948 -9.125 0.5 C-7.84882812 0.4071875 -6.57265625 0.314375 -5.2578125 0.21875 C-3.50763316 0.10123196 -1.75412035 0 0 0 Z " fill="#74B63B" transform="translate(558,502)"/>
<path d="M0 0 C9.05660377 -0.60377358 9.05660377 -0.60377358 13.125 2 C15.18593032 5.29748851 15.8150449 7.22779719 15.5390625 11.0625 C15 13 15 13 12.5625 16 C9 18 9 18 0 18 C0 12.06 0 6.12 0 0 Z " fill="#F5F9F6" transform="translate(1143,703)"/>
<path d="M0 0 C7.59 0 15.18 0 23 0 C23 1.65 23 3.3 23 5 C20.03 5 17.06 5 14 5 C14 12.26 14 19.52 14 27 C12.35 27 10.7 27 9 27 C9 19.74 9 12.48 9 5 C6.03 5 3.06 5 0 5 C0 3.35 0 1.7 0 0 Z " fill="#3B9747" transform="translate(690,698)"/>
<path d="M0 0 C2.54348425 -0.13593443 5.07961496 -0.23448907 7.625 -0.3125 C8.33785156 -0.35439453 9.05070313 -0.39628906 9.78515625 -0.43945312 C13.75793378 -0.53057188 16.28809098 -0.20966772 19.484375 2.265625 C22 5 22 5 22.7265625 7.09765625 C22.54146027 10.67867251 22.26307216 12.67115981 20 15.5 C19.01 16.2425 19.01 16.2425 18 17 C17.34 16.67 16.68 16.34 16 16 C14.12943209 15.7724985 12.25314042 15.59037189 10.375 15.4375 C8.60125 15.293125 6.8275 15.14875 5 15 C5 11.37 5 7.74 5 4 C7.97 4 10.94 4 14 4 C14 3.01 14 2.02 14 1 C9.38 1 4.76 1 0 1 C0 0.67 0 0.34 0 0 Z " fill="#439C4E" transform="translate(663,698)"/>
<path d="M0 0 C7.26 0 14.52 0 22 0 C22 1.65 22 3.3 22 5 C19.03 5 16.06 5 13 5 C13 12.26 13 19.52 13 27 C11.35 27 9.7 27 8 27 C8 19.74 8 12.48 8 5 C5.36 5 2.72 5 0 5 C0 3.35 0 1.7 0 0 Z " fill="#3F994B" transform="translate(813,698)"/>
<path d="M0 0 C4.29 0 8.58 0 13 0 C13 0.33 13 0.66 13 1 C9.04 1 5.08 1 1 1 C1.495 2.588125 1.99 4.17625 2.5 5.8125 C3.41738748 8.75578485 4 10.90124328 4 14 C5.62580966 13.88601335 7.25067157 13.75844341 8.875 13.625 C9.77992188 13.55539062 10.68484375 13.48578125 11.6171875 13.4140625 C14.17941903 13.20431868 14.17941903 13.20431868 16 11 C15.6730244 8.38419521 15.17960932 6.35921863 14 4 C14.66 4 15.32 4 16 4 C16 3.34 16 2.68 16 2 C17.32 2 18.64 2 20 2 C21.820991 4.67792794 21.9974456 6.1404918 21.9375 9.4375 C20.76383888 13.89741225 19.82677646 15.39779201 16 18 C12.33334727 18.69619988 8.72745727 18.92819259 5 19 C4.67 21.31 4.34 23.62 4 26 C2.68 26 1.36 26 0 26 C0 17.42 0 8.84 0 0 Z " fill="#228B30" transform="translate(599,699)"/>
<path d="M0 0 C2.7225 -0.0825 5.445 -0.165 8.25 -0.25 C9.10110352 -0.28641602 9.95220703 -0.32283203 10.82910156 -0.36035156 C14.49811022 -0.41423089 16.42650454 -0.3968981 19.51171875 1.73828125 C21.96024445 5.45926913 21.83965602 8.71012108 21 13 C19.1875 16.0625 19.1875 16.0625 16 18 C12.29370744 18.3956155 8.71102824 18.29246282 5 18 C5 17.01 5 16.02 5 15 C5.63808594 14.86722656 6.27617188 14.73445312 6.93359375 14.59765625 C7.75988281 14.42105469 8.58617187 14.24445312 9.4375 14.0625 C10.26121094 13.88847656 11.08492187 13.71445312 11.93359375 13.53515625 C13.97661204 13.19247006 13.97661204 13.19247006 15 12 C15.16666667 9 15.16666667 9 15 6 C13.33657163 4.33657163 11.2174291 4.63951903 8.9375 4.4375 C8.01839844 4.35371094 7.09929688 4.26992188 6.15234375 4.18359375 C5.08693359 4.09271484 5.08693359 4.09271484 4 4 C4 6.31 4 8.62 4 11 C3.01 11.495 3.01 11.495 2 12 C1.52998967 15.27555608 1.52998967 15.27555608 1.375 19.0625 C1.30023437 20.35285156 1.22546875 21.64320313 1.1484375 22.97265625 C1.09945312 23.97167969 1.05046875 24.97070312 1 26 C0.67 26 0.34 26 0 26 C0 17.42 0 8.84 0 0 Z " fill="#369344" transform="translate(570,699)"/>
<path d="M0 0 C1.98 0 3.96 0 6 0 C6 9.24 6 18.48 6 28 C1 28 1 28 -1.01953125 26.1015625 C-1.90705078 24.87566406 -1.90705078 24.87566406 -2.8125 23.625 C-3.41707031 22.81289063 -4.02164062 22.00078125 -4.64453125 21.1640625 C-6 19 -6 19 -6 17 C-4.35 16.67 -2.7 16.34 -1 16 C-0.67 10.72 -0.34 5.44 0 0 Z " fill="#58A662" transform="translate(1066,698)"/>
<path d="M0 0 C17.0129224 -1.03340586 17.0129224 -1.03340586 21.5 2.875 C24.94070824 6.66343939 25.34154998 9.66870192 25.28515625 14.6796875 C24.75480772 18.9951262 22.32596256 21.62528881 19.40625 24.65234375 C15.76417991 26.6921395 12.34565896 26.31994668 8.25 26.1875 C7.06083984 26.16719727 7.06083984 26.16719727 5.84765625 26.14648438 C3.89814436 26.11125223 1.94898374 26.05744821 0 26 C0 25.67 0 25.34 0 25 C4.62 24.67 9.24 24.34 14 24 C14 23.01 14 22.02 14 21 C14.825 20.443125 15.65 19.88625 16.5 19.3125 C19.13423434 17.33527583 19.13423434 17.33527583 19.3671875 15.0703125 C19.37907592 11.82477431 19.02657105 9.07971315 18 6 C13.87750342 3.7513655 9.59828934 3.46762265 5 3 C5 2.34 5 1.68 5 1 C3.35 1 1.7 1 0 1 C0 0.67 0 0.34 0 0 Z " fill="#419C4F" transform="translate(1138,699)"/>
<path d="M0 0 C8.41897233 -0.91473744 8.41897233 -0.91473744 12.1875 1.265625 C17.75364435 6.04323223 17.75364435 6.04323223 18.2734375 10.171875 C18.58169788 17.99694607 18.58169788 17.99694607 15.875 21.5625 C12.65244791 24.29466373 11.17974001 24.91469918 7 25 C3.625 24.5625 3.625 24.5625 1 24 C1 23.67 1 23.34 1 23 C1.9075 22.731875 2.815 22.46375 3.75 22.1875 C7.85796055 20.78111851 7.85796055 20.78111851 11 18 C11.89620057 14.9587 12.22354407 12.16400831 12 9 C9.92362528 5.47919069 7.54094602 4.73982072 3.75 3.75 C2.5125 3.5025 1.275 3.255 0 3 C0 2.01 0 1.02 0 0 Z " fill="#30913D" transform="translate(637,699)"/>
<path d="M0 0 C5 0 5 0 6.65234375 1.35546875 C7.95682671 3.21505084 9.10907118 4.90674977 10 7 C9.3125 9.9375 9.3125 9.9375 8 12 C7.67 11.34 7.34 10.68 7 10 C6.34 10 5.68 10 5 10 C5 15.61 5 21.22 5 27 C3.35 27 1.7 27 0 27 C0 18.09 0 9.18 0 0 Z " fill="#379442" transform="translate(997,698)"/>
<path d="M0 0 C1.98 0 3.96 0 6 0 C6.01981934 0.59538574 6.03963867 1.19077148 6.06005859 1.80419922 C6.15516126 4.49492153 6.26489842 7.18485148 6.375 9.875 C6.4059375 10.81214844 6.436875 11.74929688 6.46875 12.71484375 C6.50742187 13.61074219 6.54609375 14.50664063 6.5859375 15.4296875 C6.6173584 16.25710449 6.6487793 17.08452148 6.68115234 17.93701172 C6.82599137 20.21986085 6.82599137 20.21986085 9 22 C10.98821313 22.39764263 12.98944339 22.73775349 15 23 C15 23.33 15 23.66 15 24 C13.35 24 11.7 24 10 24 C10 24.99 10 25.98 10 27 C6.42150008 26.70179167 5.23773516 26.25754642 2.75 23.5625 C0.47142731 20.22601856 -0.12417011 18.62551716 -0.09765625 14.6484375 C-0.09443359 13.79765625 -0.09121094 12.946875 -0.08789062 12.0703125 C-0.07951172 11.18085937 -0.07113281 10.29140625 -0.0625 9.375 C-0.05798828 8.4778125 -0.05347656 7.580625 -0.04882812 6.65625 C-0.03702591 4.43743352 -0.02056155 2.21874982 0 0 Z " fill="#439F4F" transform="translate(536,698)"/>
<path d="M0 0 C3.74358093 2.27585952 7.02044301 5.04088602 9 9 C9.13415472 11.6723621 9.04318541 14.32250488 9 17 C8.67 17 8.34 17 8 17 C7.67 15.02 7.34 13.04 7 11 C5.68 11 4.36 11 3 11 C0.3125 8.5625 0.3125 8.5625 -2 6 C-3.09198142 4.70043665 -3.09198142 4.70043665 -5.75 4.6875 C-9.83048338 5.07985417 -11.27096457 5.95907481 -14 9 C-14.89055736 12.64182335 -14.89055736 12.64182335 -15 16 C-15.33 16 -15.66 16 -16 16 C-16.33 14.02 -16.66 12.04 -17 10 C-17.33 10 -17.66 10 -18 10 C-18.33 12.97 -18.66 15.94 -19 19 C-19.33 19 -19.66 19 -20 19 C-20.86060251 8.2520309 -20.86060251 8.2520309 -17.75 4.4375 C-12.33988962 -0.35782511 -7.11927931 -1.32383293 0 0 Z " fill="#359647" transform="translate(893,698)"/>
<path d="M0 0 C0.66 0.33 1.32 0.66 2 1 C1.44054687 1.41507812 0.88109375 1.83015625 0.3046875 2.2578125 C-19.02556333 17.11289272 -34.07454324 34.87243959 -41.2109375 58.44921875 C-42.0102056 61.03299138 -42.97895701 63.49679784 -44 66 C-44.67795528 67.99620166 -45.34733531 69.99538701 -46 72 C-47.67695705 67.90780291 -46.28033465 64.27738462 -45.0625 60.25 C-44.83723633 59.50137695 -44.61197266 58.75275391 -44.37988281 57.98144531 C-36.95630187 34.50794436 -21.21560716 12.82920245 0 0 Z " fill="#B8D77B" transform="translate(118,439)"/>
<path d="M0 0 C1.98 0 3.96 0 6 0 C6 8.91 6 17.82 6 27 C4.02 27 2.04 27 0 27 C0 18.09 0 9.18 0 0 Z " fill="#439F51" transform="translate(982,698)"/>
<path d="M0 0 C6.6 0 13.2 0 20 0 C20 1.65 20 3.3 20 5 C15.05 5 10.1 5 5 5 C5 7.31 5 9.62 5 12 C4.34 12.66 3.68 13.32 3 14 C2.53513282 17.12196336 2.53513282 17.12196336 2.375 20.625 C2.30023437 21.81351563 2.22546875 23.00203125 2.1484375 24.2265625 C2.09945312 25.14179687 2.05046875 26.05703125 2 27 C1.34 27 0.68 27 0 27 C0 18.09 0 9.18 0 0 Z " fill="#389544" transform="translate(937,698)"/>
<path d="M0 0 C2.34375 1.0234375 2.34375 1.0234375 4 2 C3.67 3.32 3.34 4.64 3 6 C-0.96 6 -4.92 6 -9 6 C-9 6.99 -9 7.98 -9 9 C-6.525 9.99 -6.525 9.99 -4 11 C-5.32 12.32 -6.64 13.64 -8 15 C-6.68 15.33 -5.36 15.66 -4 16 C-4.66 16.33 -5.32 16.66 -6 17 C-12.5625 14.65625 -12.5625 14.65625 -15 11 C-15.40713754 7.26790586 -15.48317209 4.89731959 -13.6875 1.5625 C-9.39921062 -0.9306915 -4.84377645 -0.61259526 0 0 Z " fill="#4A9951" transform="translate(524,698)"/>
<path d="M0 0 C1.65 0 3.3 0 5 0 C5 8.91 5 17.82 5 27 C3.35 27 1.7 27 0 27 C0 18.09 0 9.18 0 0 Z " fill="#379845" transform="translate(719,698)"/>
<path d="M0 0 C0.33 0 0.66 0 1 0 C1.33 3.3 1.66 6.6 2 10 C6.29 10 10.58 10 15 10 C15 10.33 15 10.66 15 11 C10.71 11 6.42 11 2 11 C2 13.31 2 15.62 2 18 C7.28 18 12.56 18 18 18 C18 19.32 18 20.64 18 22 C11.4 22 4.8 22 -2 22 C-1.34 14.74 -0.68 7.48 0 0 Z " fill="#2D8F3C" transform="translate(1112,703)"/>
<path d="M0 0 C1.423125 -0.061875 2.84625 -0.12375 4.3125 -0.1875 C5.51326172 -0.23970703 5.51326172 -0.23970703 6.73828125 -0.29296875 C9 0 9 0 10.8046875 1.3515625 C12 3 12 3 11.8125 5.5625 C11 8 11 8 9 10 C5.98173347 10.27240673 3.03629378 10.08675125 0 10 C0 6.7 0 3.4 0 0 Z " fill="#F1F7F2" transform="translate(604,703)"/>
<path d="M0 0 C1.65 0 3.3 0 5 0 C5 8.91 5 17.82 5 27 C3.35 27 1.7 27 0 27 C0 26.01 0 25.02 0 24 C0.66 24 1.32 24 2 24 C1.67 22.02 1.34 20.04 1 18 C0.67 18 0.34 18 0 18 C0 12.06 0 6.12 0 0 Z " fill="#40A04F" transform="translate(753,698)"/>
<path d="M0 0 C6.8359375 -0.1953125 6.8359375 -0.1953125 9 0 C11 2 11 2 11.25 5 C11 8 11 8 9 10 C5.98173347 10.27240673 3.03629378 10.08675125 0 10 C0 6.7 0 3.4 0 0 Z " fill="#F3F8F4" transform="translate(575,703)"/>
<path d="M0 0 C1.62463842 -0.05395478 3.24978541 -0.09277195 4.875 -0.125 C5.77992188 -0.14820313 6.68484375 -0.17140625 7.6171875 -0.1953125 C10 0 10 0 12 2 C12.25 4.5 12.25 4.5 12 7 C10 9 10 9 7.6171875 9.1953125 C6.71226562 9.17210937 5.80734375 9.14890625 4.875 9.125 C3.50988281 9.09792969 3.50988281 9.09792969 2.1171875 9.0703125 C1.41851563 9.04710937 0.71984375 9.02390625 0 9 C0 6.03 0 3.06 0 0 Z " fill="#F9FBF9" transform="translate(668,703)"/>
<path d="M0 0 C1.65 0 3.3 0 5 0 C5.66 0.66 6.32 1.32 7 2 C6.67 2.99 6.34 3.98 6 5 C4.68 3.68 3.36 2.36 2 1 C2 3.64 2 6.28 2 9 C2.66 9 3.32 9 4 9 C4 14.61 4 20.22 4 26 C2.68 26 1.36 26 0 26 C0 17.42 0 8.84 0 0 Z " fill="#278F35" transform="translate(734,699)"/>
<path d="M0 0 C1.32 0 2.64 0 4 0 C5.820991 2.67792794 5.9974456 4.1404918 5.9375 7.4375 C4.81540377 11.70146568 3.55273225 13.41619473 0 16 C-2.8125 15.8125 -2.8125 15.8125 -5 15 C-5 14.67 -5 14.34 -5 14 C-7.97 13.505 -7.97 13.505 -11 13 C-11 12.67 -11 12.34 -11 12 C-10.37351562 11.95101562 -9.74703125 11.90203125 -9.1015625 11.8515625 C-8.28429687 11.77679687 -7.46703125 11.70203125 -6.625 11.625 C-5.81289063 11.55539062 -5.00078125 11.48578125 -4.1640625 11.4140625 C-1.79665809 11.17107412 -1.79665809 11.17107412 0 9 C-0.3269756 6.38419521 -0.82039068 4.35921863 -2 2 C-1.34 2 -0.68 2 0 2 C0 1.34 0 0.68 0 0 Z " fill="#369342" transform="translate(615,701)"/>
<path d="M0 0 C-5.25832982 2.8169624 -10.12595923 4.83764564 -16 6 C-16.91523438 6.185625 -17.83046875 6.37125 -18.7734375 6.5625 C-26.31485764 8.01821649 -26.31485764 8.01821649 -29.64453125 7.9296875 C-32.27386742 7.80006992 -32.27386742 7.80006992 -35 10 C-34.25 8.0625 -34.25 8.0625 -33 6 C-30.9375 5.375 -30.9375 5.375 -29 5 C-28.67 4.34 -28.34 3.68 -28 3 C-26.07421875 2.33203125 -26.07421875 2.33203125 -23.6875 1.8125 C-22.90761719 1.63332031 -22.12773437 1.45414062 -21.32421875 1.26953125 C-18.90795241 0.98932557 -17.29757048 1.25867863 -15 2 C-15.99 2.33 -16.98 2.66 -18 3 C-13.93911161 2.57699079 -10.54118028 1.91253422 -6.75 0.375 C-3 -1 -3 -1 0 0 Z " fill="#DCEDC0" transform="translate(244,483)"/>
<path d="M0 0 C16.97038075 -1.03082178 16.97038075 -1.03082178 21.5625 2.375 C24.1368018 5.20809404 24.38400742 7.60912217 24.4375 11.375 C24.32587537 12.91952045 24.19132627 14.463316 24 16 C23.67 16 23.34 16 23 16 C22.67 13.03 22.34 10.06 22 7 C20.68 7.33 19.36 7.66 18 8 C18 7.34 18 6.68 18 6 C13.66579301 3.96834048 9.71403788 3.47939368 5 3 C5 2.34 5 1.68 5 1 C3.35 1 1.7 1 0 1 C0 0.67 0 0.34 0 0 Z " fill="#2B8F38" transform="translate(1138,699)"/>
<path d="M0 0 C0.66 0.66 1.32 1.32 2 2 C2.66 1.67 3.32 1.34 4 1 C4 7.93 4 14.86 4 22 C2.68 22 1.36 22 0 22 C0 14.74 0 7.48 0 0 Z " fill="#238C31" transform="translate(822,703)"/>
<path d="M0 0 C4.62 0 9.24 0 14 0 C14 0.99 14 1.98 14 3 C9.545 3.495 9.545 3.495 5 4 C4.9175 5.4025 4.835 6.805 4.75 8.25 C4.46805693 13.04303225 3.83921943 13.16078057 0 17 C0 11.39 0 5.78 0 0 Z " fill="#278A33" transform="translate(663,699)"/>
<path d="M0 0 C0.66 0.33 1.32 0.66 2 1 C2.05859908 5.31244188 2.09379686 9.62477974 2.125 13.9375 C2.14175781 15.14986328 2.15851563 16.36222656 2.17578125 17.61132812 C2.21267208 24.4176856 1.80060558 30.42849852 0 37 C-0.33 37 -0.66 37 -1 37 C-1.02471738 32.21281308 -1.04286825 27.4256633 -1.05493164 22.63842773 C-1.05996065 21.00984042 -1.06678465 19.38125763 -1.07543945 17.75268555 C-1.08756769 15.41193528 -1.09324263 13.0712447 -1.09765625 10.73046875 C-1.10281754 10.00224411 -1.10797882 9.27401947 -1.11329651 8.52372742 C-1.11364279 5.40397712 -0.99455604 2.98366812 0 0 Z " fill="#45974C" transform="translate(470,529)"/>
<path d="M0 0 C4.29 0 8.58 0 13 0 C13 0.99 13 1.98 13 3 C10.36 3.33 7.72 3.66 5 4 C4.87625 5.134375 4.7525 6.26875 4.625 7.4375 C4.41875 8.613125 4.2125 9.78875 4 11 C3.01 11.495 3.01 11.495 2 12 C1.52998967 15.27555608 1.52998967 15.27555608 1.375 19.0625 C1.30023437 20.35285156 1.22546875 21.64320313 1.1484375 22.97265625 C1.09945312 23.97167969 1.05046875 24.97070312 1 26 C0.67 26 0.34 26 0 26 C0 17.42 0 8.84 0 0 Z " fill="#1F862C" transform="translate(570,699)"/>
<path d="M0 0 C9.22268877 -1.06806874 9.22268877 -1.06806874 13.4765625 1.48828125 C16.09910576 3.79135106 18.42848597 5.85697194 20 9 C20.13415472 11.6723621 20.04318541 14.32250488 20 17 C19.67 17 19.34 17 19 17 C18.67 15.02 18.34 13.04 18 11 C16.68 11 15.36 11 14 11 C11.53171804 8.81872757 9.48126856 6.96253712 8 4 C8.33 3.01 8.66 2.02 9 1 C6.03 1 3.06 1 0 1 C0 0.67 0 0.34 0 0 Z " fill="#449A4F" transform="translate(882,698)"/>
<path d="M0 0 C1.32 0 2.64 0 4 0 C4 8.58 4 17.16 4 26 C3.67 26 3.34 26 3 26 C2.67 22.37 2.34 18.74 2 15 C1.01 15.495 1.01 15.495 0 16 C0 10.72 0 5.44 0 0 Z " fill="#228C32" transform="translate(1067,699)"/>
<path d="M0 0 C-5.78456156 4.93389074 -12.68268091 5.67686833 -20 7 C-19.34 7.66 -18.68 8.32 -18 9 C-17.67 9.66 -17.34 10.32 -17 11 C-16.01 11 -15.02 11 -14 11 C-14 11.66 -14 12.32 -14 13 C-13.34 13 -12.68 13 -12 13 C-12 13.66 -12 14.32 -12 15 C-16.98012761 13.49087042 -20.24259942 10.44338151 -24 7 C-21.62430828 4.62430828 -20.1676151 4.36662148 -16.9375 3.5625 C-12.45043414 2.41121336 -8.12220919 1.0559325 -3.77734375 -0.546875 C-2 -1 -2 -1 0 0 Z " fill="#8EC45D" transform="translate(219,689)"/>
<path d="M0 0 C0 0.66 0 1.32 0 2 C-2.12292296 2.52923572 -4.24842051 3.04815377 -6.375 3.5625 C-7.55835938 3.85253906 -8.74171875 4.14257812 -9.9609375 4.44140625 C-13 5 -13 5 -15 4 C-15.33 4.99 -15.66 5.98 -16 7 C-18.43359375 8.640625 -18.43359375 8.640625 -21.4375 10.25 C-22.92056641 11.06210937 -22.92056641 11.06210937 -24.43359375 11.890625 C-25.28050781 12.25671875 -26.12742187 12.6228125 -27 13 C-27.66 12.67 -28.32 12.34 -29 12 C-20.66974743 4.70051101 -11.41116174 -1.09722709 0 0 Z " fill="#51A859" transform="translate(311,505)"/>
<path d="M0 0 C0.66 0.66 1.32 1.32 2 2 C-6.79465785 7.42474223 -15.7165673 12.60758016 -24.75 17.625 C-25.71437988 18.16995117 -26.67875977 18.71490234 -27.67236328 19.27636719 C-28.57970215 19.77555664 -29.48704102 20.27474609 -30.421875 20.7890625 C-31.23237305 21.23975098 -32.04287109 21.69043945 -32.87792969 22.15478516 C-35 23 -35 23 -38 22 C-31.41430962 17.82061957 -24.62448931 14.2226102 -17.62304688 10.8046875 C-14.71442743 9.38040777 -11.91453274 7.94797137 -9.14453125 6.26171875 C-7 5 -7 5 -5 5 C-5 4.34 -5 3.68 -5 3 C-3.35 2.67 -1.7 2.34 0 2 C0 1.34 0 0.68 0 0 Z " fill="#399240" transform="translate(328,722)"/>
<path d="M0 0 C1.40742362 4.22227085 -0.44733412 6.74964183 -2.25 10.5625 C-4.69067508 15.90942634 -6.82812657 21.12170605 -8.37890625 26.8046875 C-9.36507493 30.29039065 -10.68767965 33.62546195 -12 37 C-13.67737861 32.90677422 -12.27839858 29.27860154 -11.0625 25.25 C-10.73439331 24.14120483 -10.73439331 24.14120483 -10.3996582 23.01000977 C-7.85860062 14.88189983 -4.04899732 7.46502484 0 0 Z " fill="#BDD986" transform="translate(84,474)"/>
<path d="M0 0 C0.66 0 1.32 0 2 0 C2 0.66 2 1.32 2 2 C2.66 2 3.32 2 4 2 C4.37125 3.175625 4.37125 3.175625 4.75 4.375 C6.15389099 7.32317108 7.00675737 7.9024777 10 9 C10 9.99 10 10.98 10 12 C3.75 12.48076923 3.75 12.48076923 0.5625 10.4375 C-1.54048663 7.15684085 -1.360388 4.82011276 -1 1 C-0.67 0.67 -0.34 0.34 0 0 Z " fill="#2C8B34" transform="translate(910,701)"/>
<path d="M0 0 C1.65 0 3.3 0 5 0 C5 3.96 5 7.92 5 12 C3.35 12.33 1.7 12.66 0 13 C-0.66 12.34 -1.32 11.68 -2 11 C-1.67 10.34 -1.34 9.68 -1 9 C-0.77532169 7.46331135 -0.59203195 5.92031946 -0.4375 4.375 C-0.35371094 3.55773437 -0.26992188 2.74046875 -0.18359375 1.8984375 C-0.12300781 1.27195312 -0.06242188 0.64546875 0 0 Z " fill="#52A35E" transform="translate(786,711)"/>
<path d="M0 0 C5.94 0 11.88 0 18 0 C18 0.99 18 1.98 18 3 C13.05 3 8.1 3 3 3 C3 4.98 3 6.96 3 9 C1.5 7.875 1.5 7.875 0 6 C0 4.02 0 2.04 0 0 Z " fill="#3B9546" transform="translate(1083,700)"/>
<path d="M0 0 C3 1 3 1 4 3 C4.99 3 5.98 3 7 3 C7 4.65 7 6.3 7 8 C6.01 8.33 5.02 8.66 4 9 C3.67 14.28 3.34 19.56 3 25 C2.67 25 2.34 25 2 25 C2 19.39 2 13.78 2 8 C1.34 8 0.68 8 0 8 C0 5.36 0 2.72 0 0 Z " fill="#439A4F" transform="translate(736,700)"/>
<path d="M0 0 C0.66 0.33 1.32 0.66 2 1 C1.11032656 2.08839774 0.21288426 3.17044608 -0.6875 4.25 C-1.18636719 4.85328125 -1.68523437 5.4565625 -2.19921875 6.078125 C-6.27101851 10.42373342 -11.06543747 13.38484252 -16.1875 16.3125 C-17.13012695 16.8703418 -17.13012695 16.8703418 -18.09179688 17.43945312 C-19.69197857 18.35848796 -21.34324411 19.18737069 -23 20 C-23.66 19.67 -24.32 19.34 -25 19 C-23.87464844 18.27296875 -23.87464844 18.27296875 -22.7265625 17.53125 C-14.72178554 12.2888268 -6.67018515 6.92591109 0 0 Z " fill="#D2EBCE" transform="translate(306,680)"/>
<path d="M0 0 C2.62561109 -0.08074203 5.24875676 -0.1403623 7.875 -0.1875 C8.99455078 -0.22520508 8.99455078 -0.22520508 10.13671875 -0.26367188 C12.3046875 -0.29296875 12.3046875 -0.29296875 16 0 C16.66 0.99 17.32 1.98 18 3 C13.05 3 8.1 3 3 3 C3 5.31 3 7.62 3 10 C2.01 10.66 1.02 11.32 0 12 C0 8.04 0 4.08 0 0 Z " fill="#429B4E" transform="translate(939,700)"/>
<path d="M0 0 C2.0625 0.4375 2.0625 0.4375 4 1 C0.05979031 4.04808674 -4.12562838 6.63912987 -8.34375 9.28125 C-10.95957063 10.92316426 -10.95957063 10.92316426 -13.140625 12.64453125 C-15.58554663 14.42685857 -18.11724374 15.14827656 -21 16 C-17.41843527 12.04241798 -13.21334842 9.26595827 -8.8125 6.3125 C-7.3601112 5.33026331 -5.90825909 4.34723242 -4.45703125 3.36328125 C-3.81741455 2.93313721 -3.17779785 2.50299316 -2.51879883 2.05981445 C-1.02496738 1.08338143 -1.02496738 1.08338143 0 0 Z " fill="#409145" transform="translate(329,693)"/>
<path d="M0 0 C2 3 2 3 1.64477539 4.91699219 C1.43199951 5.60438477 1.21922363 6.29177734 1 7 C0.85966422 8.439735 0.75583143 9.88337149 0.68359375 11.328125 C0.64169922 12.12734375 0.59980469 12.9265625 0.55664062 13.75 C0.51732422 14.575 0.47800781 15.4 0.4375 16.25 C0.39431641 17.09046875 0.35113281 17.9309375 0.30664062 18.796875 C0.20091457 20.86440671 0.09998705 22.93218281 0 25 C-0.66 25.33 -1.32 25.66 -2 26 C-2.05814085 22.41673499 -2.09364357 18.83359162 -2.125 15.25 C-2.14175781 14.23421875 -2.15851563 13.2184375 -2.17578125 12.171875 C-2.18222656 11.1921875 -2.18867188 10.2125 -2.1953125 9.203125 C-2.20578613 8.30239258 -2.21625977 7.40166016 -2.22705078 6.47363281 C-1.98721676 3.86073144 -1.32312064 2.24335334 0 0 Z " fill="#3D9C44" transform="translate(275,527)"/>
<path d="M0 0 C0.99 0 1.98 0 3 0 C3 0.66 3 1.32 3 2 C-0.42706405 4.49615176 -4.15782339 6.54290757 -7.8125 8.6875 C-8.83666016 9.30689453 -9.86082031 9.92628906 -10.91601562 10.56445312 C-11.89892578 11.14517578 -12.88183594 11.72589844 -13.89453125 12.32421875 C-14.80050049 12.86135498 -15.70646973 13.39849121 -16.63989258 13.9519043 C-19 15 -19 15 -22 14 C-20.68 13.67 -19.36 13.34 -18 13 C-18 12.34 -18 11.68 -18 11 C-16.45532227 9.87084961 -16.45532227 9.87084961 -14.31640625 8.65234375 C-13.55392578 8.21212891 -12.79144531 7.77191406 -12.00585938 7.31835938 C-11.19955078 6.86267578 -10.39324219 6.40699219 -9.5625 5.9375 C-7.97980532 5.03110538 -6.39774017 4.12361033 -4.81640625 3.21484375 C-4.10943604 2.81386475 -3.40246582 2.41288574 -2.67407227 1.99975586 C-1.02743292 1.10894458 -1.02743292 1.10894458 0 0 Z " fill="#348D3D" transform="translate(353,707)"/>
<path d="M0 0 C0.70189453 0.00451172 1.40378906 0.00902344 2.12695312 0.01367188 C3.85550538 0.02543073 5.58401365 0.04336546 7.3125 0.0625 C7.3125 1.0525 7.3125 2.0425 7.3125 3.0625 C1.3725 3.0625 -4.5675 3.0625 -10.6875 3.0625 C-10.6875 2.4025 -10.6875 1.7425 -10.6875 1.0625 C-7.06882441 -0.1437252 -3.76243749 -0.04566918 0 0 Z " fill="#248C34" transform="translate(949.6875,721.9375)"/>
<path d="M0 0 C6.52307692 -0.36923077 6.52307692 -0.36923077 8.9375 1.5 C9.288125 1.995 9.63875 2.49 10 3 C9.34 5.31 8.68 7.62 8 10 C7.2575 9.21625 6.515 8.4325 5.75 7.625 C3.45566682 5.43495469 1.87841142 4.17268614 -1 3 C-0.67 2.01 -0.34 1.02 0 0 Z " fill="#308B3B" transform="translate(517,710)"/>
<path d="M0 0 C-1 3 -1 3 -3.328125 4.16796875 C-4.29234375 4.50441406 -5.2565625 4.84085937 -6.25 5.1875 C-7.68085938 5.70376953 -7.68085938 5.70376953 -9.140625 6.23046875 C-11.91094835 6.97603391 -14.14936469 7.15085479 -17 7 C-16.67 6.34 -16.34 5.68 -16 5 C-15.01 5 -14.02 5 -13 5 C-13 4.34 -13 3.68 -13 3 C-11.21189234 2.30329584 -9.41937948 1.61788811 -7.625 0.9375 C-6.62726563 0.55464844 -5.62953125 0.17179687 -4.6015625 -0.22265625 C-2 -1 -2 -1 0 0 Z " fill="#EEF6E0" transform="translate(242,480)"/>
<path d="M0 0 C1.65 0 3.3 0 5 0 C5 0.66 5 1.32 5 2 C7.64 2 10.28 2 13 2 C13 2.33 13 2.66 13 3 C10.36 3 7.72 3 5 3 C5 8.94 5 14.88 5 21 C4.67 21 4.34 21 4 21 C3.67 15.39 3.34 9.78 3 4 C2.34 5.32 1.68 6.64 1 8 C-0.35439668 5.29120665 -0.06501451 2.99066732 0 0 Z " fill="#5AAA64" transform="translate(1138,700)"/>
<path d="M0 0 C0.66 0 1.32 0 2 0 C-0.13520868 4.72089431 -3.48242024 8.01345444 -7 11.75 C-7.64195312 12.44738281 -8.28390625 13.14476562 -8.9453125 13.86328125 C-9.56148438 14.52199219 -10.17765625 15.18070313 -10.8125 15.859375 C-11.37582031 16.46233398 -11.93914062 17.06529297 -12.51953125 17.68652344 C-14 19 -14 19 -16 19 C-14.44067258 15.20680465 -12.05753612 12.88626252 -9.125 10.0625 C-6.49047455 7.51841348 -4.05792949 5.07431879 -1.8046875 2.18359375 C-1.20914062 1.46300781 -0.61359375 0.74242187 0 0 Z " fill="#3E9244" transform="translate(377,650)"/>
<path d="M0 0 C1.95825873 -0.02694851 3.91662226 -0.04637218 5.875 -0.0625 C6.96554687 -0.07410156 8.05609375 -0.08570313 9.1796875 -0.09765625 C12 0 12 0 14 1 C13.67 2.32 13.34 3.64 13 5 C7.06 4.01 7.06 4.01 1 3 C0.67 2.01 0.34 1.02 0 0 Z " fill="#1E892D" transform="translate(514,699)"/>
<path d="M0 0 C0.33 0 0.66 0 1 0 C1.0289337 3.79165074 1.04677601 7.58327327 1.0625 11.375 C1.07087891 12.45523438 1.07925781 13.53546875 1.08789062 14.6484375 C1.09111328 15.6796875 1.09433594 16.7109375 1.09765625 17.7734375 C1.10289307 18.72653809 1.10812988 19.67963867 1.11352539 20.66162109 C1 23 1 23 0 25 C-0.66 25 -1.32 25 -2 25 C-4.125 20.375 -4.125 20.375 -3 17 C-2.01 17.33 -1.02 17.66 0 18 C0 12.06 0 6.12 0 0 Z " fill="#228D30" transform="translate(754,699)"/>
<path d="M0 0 C1.0209375 0.433125 1.0209375 0.433125 2.0625 0.875 C5.32893093 2.12597355 8.62846123 3.07447955 12 4 C12 4.99 12 5.98 12 7 C10.20759337 6.88610125 8.41605165 6.75852313 6.625 6.625 C5.12839844 6.52058594 5.12839844 6.52058594 3.6015625 6.4140625 C1 6 1 6 -1 4 C-0.625 1.875 -0.625 1.875 0 0 Z " fill="#2C8E3A" transform="translate(909,718)"/>
<path d="M0 0 C0.99 0.33 1.98 0.66 3 1 C3.36923077 6.41538462 3.36923077 6.41538462 1.5 9.375 C1.005 9.91125 0.51 10.4475 0 11 C-1.32 10.34 -2.64 9.68 -4 9 C-3.67 7.35 -3.34 5.7 -3 4 C-2.34 4 -1.68 4 -1 4 C-0.67 2.68 -0.34 1.36 0 0 Z " fill="#3A9648" transform="translate(526,713)"/>
<path d="M0 0 C1.7492214 -0.08142927 3.49954542 -0.13938541 5.25 -0.1875 C6.22453125 -0.22230469 7.1990625 -0.25710938 8.203125 -0.29296875 C11.37468742 0.03924798 12.67040307 0.88672279 15 3 C14.67 4.32 14.34 5.64 14 7 C8.06 6.01 8.06 6.01 2 5 C2 4.67 2 4.34 2 4 C3.134375 3.87625 4.26875 3.7525 5.4375 3.625 C6.613125 3.41875 7.78875 3.2125 9 3 C9.33 2.34 9.66 1.68 10 1 C6.7 1 3.4 1 0 1 C0 0.67 0 0.34 0 0 Z " fill="#4EA158" transform="translate(775,698)"/>
<path d="M0 0 C0.33 0.66 0.66 1.32 1 2 C1.99 1.67 2.98 1.34 4 1 C4.08131463 2.43655854 4.13933559 3.8744483 4.1875 5.3125 C4.22230469 6.11300781 4.25710938 6.91351562 4.29296875 7.73828125 C3.93801608 10.47851584 3.10633718 11.29171079 1 13 C0.1276588 10.00519083 -0.10829766 7.36424089 -0.0625 4.25 C-0.05347656 3.45078125 -0.04445313 2.6515625 -0.03515625 1.828125 C-0.02355469 1.22484375 -0.01195312 0.6215625 0 0 Z " fill="#299036" transform="translate(897,707)"/>
<path d="M0 0 C0.66 0 1.32 0 2 0 C0.56525156 4.09501116 -1.43465486 7.2603761 -4 10.75 C-4.70125 11.71421875 -5.4025 12.6784375 -6.125 13.671875 C-8 16 -8 16 -10 17 C-9.40385819 12.77471416 -6.95318193 9.65457051 -4.5625 6.25 C-4.15451172 5.64800781 -3.74652344 5.04601562 -3.32617188 4.42578125 C-2.27295908 2.91039188 -1.14181957 1.4497966 0 0 Z " fill="#3F9445" transform="translate(393,628)"/>
<path d="M0 0 C0.66 0 1.32 0 2 0 C0.88809524 3.33571429 0.53679327 3.58417079 -2.375 5.1875 C-3.28378906 5.70376953 -3.28378906 5.70376953 -4.2109375 6.23046875 C-6 7 -6 7 -9 7 C-9 7.66 -9 8.32 -9 9 C-12.47307692 11.10865385 -12.47307692 11.10865385 -15.140625 10.55859375 C-16.06101563 10.28208984 -16.06101563 10.28208984 -17 10 C-15.28490234 9.04287109 -15.28490234 9.04287109 -13.53515625 8.06640625 C-12.04422197 7.23185813 -10.55333921 6.39721796 -9.0625 5.5625 C-8.30775391 5.14162109 -7.55300781 4.72074219 -6.77539062 4.28710938 C-6.05673828 3.88427734 -5.33808594 3.48144531 -4.59765625 3.06640625 C-3.93258057 2.69459229 -3.26750488 2.32277832 -2.58227539 1.93969727 C-1.01422168 1.09652286 -1.01422168 1.09652286 0 0 Z " fill="#81BE5F" transform="translate(246,673)"/>
<path d="M0 0 C1.98 0 3.96 0 6 0 C6 0.99 6 1.98 6 3 C6.66 3 7.32 3 8 3 C8 2.01 8 1.02 8 0 C9.32 0.33 10.64 0.66 12 1 C9.05936192 3.94063808 7.00073186 5.29887949 2.875 5.375 C-1 5 -1 5 -4 3 C-2.35 3 -0.7 3 1 3 C0.67 2.01 0.34 1.02 0 0 Z " fill="#56A765" transform="translate(916,721)"/>
<path d="M0 0 C3.96 0 7.92 0 12 0 C12 0.99 12 1.98 12 3 C7.71 3 3.42 3 -1 3 C-0.67 2.01 -0.34 1.02 0 0 Z " fill="#21872F" transform="translate(1087,710)"/>
<path d="M0 0 C1.98 0 3.96 0 6 0 C6 0.66 6 1.32 6 2 C-1.47321608 4.15721701 -8.21038876 5.46530864 -16 5 C-12.47844036 2.65229357 -10.49228157 2.62330386 -6.3125 2.375 C-5.13300781 2.30023438 -3.95351562 2.22546875 -2.73828125 2.1484375 C-1.83464844 2.09945313 -0.93101562 2.05046875 0 2 C0 1.34 0 0.68 0 0 Z " fill="#C1DF94" transform="translate(249,497)"/>
<path d="M0 0 C0.66 0.33 1.32 0.66 2 1 C-2.95 5.95 -7.9 10.9 -13 16 C-13 11.08924079 -9.30469813 8.39044878 -6 5 C-4.05397986 3.23549584 -2.07285289 1.6178364 0 0 Z " fill="#F0F6E2" transform="translate(158,475)"/>
<path d="M0 0 C2 2 2 2 2.125 5.125 C2.08375 6.07375 2.0425 7.0225 2 8 C0.35 8.66 -1.3 9.32 -3 10 C-3.66 9.34 -4.32 8.68 -5 8 C-5 6 -5 6 -3.0625 4 C-2.381875 3.34 -1.70125 2.68 -1 2 C-0.67 1.34 -0.34 0.68 0 0 Z " fill="#369946" transform="translate(896,714)"/>
<path d="M0 0 C0.99 0.33 1.98 0.66 3 1 C3 3.31 3 5.62 3 8 C7.95 8 12.9 8 18 8 C18 8.33 18 8.66 18 9 C12.06 9.33 6.12 9.66 0 10 C0 6.7 0 3.4 0 0 Z " fill="#3B9949" transform="translate(939,713)"/>
<path d="M0 0 C2.375 1.1875 2.375 1.1875 3.375 3.1875 C3.50915472 5.8598621 3.41818541 8.51000488 3.375 11.1875 C3.045 11.1875 2.715 11.1875 2.375 11.1875 C2.045 9.2075 1.715 7.2275 1.375 5.1875 C0.055 5.1875 -1.265 5.1875 -2.625 5.1875 C-4.375 2.6875 -4.375 2.6875 -5.625 0.1875 C-2.625 -0.8125 -2.625 -0.8125 0 0 Z " fill="#4CA056" transform="translate(898.625,703.8125)"/>
<path d="M0 0 C3.96 0 7.92 0 12 0 C12 0.33 12 0.66 12 1 C9.36 1 6.72 1 4 1 C4 4.3 4 7.6 4 11 C1.55160412 7.32740617 0 4.45351799 0 0 Z " fill="#539F5E" transform="translate(600,702)"/>
<path d="M0 0 C0.66 0.33 1.32 0.66 2 1 C0.27278316 2.27348212 -1.45686238 3.54367057 -3.1875 4.8125 C-4.15042969 5.52019531 -5.11335938 6.22789062 -6.10546875 6.95703125 C-13.25047801 12 -13.25047801 12 -16 12 C-16 11.34 -16 10.68 -16 10 C-15.01 10 -14.02 10 -13 10 C-13 9.34 -13 8.68 -13 8 C-7.70588235 4 -7.70588235 4 -4 4 C-4 3.34 -4 2.68 -4 2 C-2.125 0.9375 -2.125 0.9375 0 0 Z " fill="#2E8939" transform="translate(374,694)"/>
<path d="M0 0 C3.3 0 6.6 0 10 0 C10 1.32 10 2.64 10 4 C6.7 3.67 3.4 3.34 0 3 C0 2.01 0 1.02 0 0 Z " fill="#248930" transform="translate(637,699)"/>
<path d="M0 0 C0.66 0.33 1.32 0.66 2 1 C-4.28389483 5.53024976 -8.34636634 6.15007125 -16 6 C-16 5.67 -16 5.34 -16 5 C-15.09636719 4.72285156 -14.19273437 4.44570313 -13.26171875 4.16015625 C-12.08222656 3.79792969 -10.90273437 3.43570313 -9.6875 3.0625 C-7.92986328 2.52302734 -7.92986328 2.52302734 -6.13671875 1.97265625 C-4.08446023 1.33627721 -2.03839863 0.67946621 0 0 Z " fill="#96CA6D" transform="translate(217,688)"/>
<path d="M0 0 C0 0.66 0 1.32 0 2 C-1.78614318 3.03046722 -3.57910018 4.04913236 -5.375 5.0625 C-6.87160156 5.91521484 -6.87160156 5.91521484 -8.3984375 6.78515625 C-9.25695312 7.18605469 -10.11546875 7.58695313 -11 8 C-11.66 7.67 -12.32 7.34 -13 7 C-11.59310148 5.82157218 -10.17406375 4.65762602 -8.75 3.5 C-7.96109375 2.8503125 -7.1721875 2.200625 -6.359375 1.53125 C-4 0 -4 0 0 0 Z " fill="#43A24B" transform="translate(295,510)"/>
<path d="M0 0 C1.65 1.32 3.3 2.64 5 4 C4.67 2.68 4.34 1.36 4 0 C4.99 0.66 5.98 1.32 7 2 C8.9896995 2.39013716 10.99019869 2.73202649 13 3 C13 3.33 13 3.66 13 4 C11.35 4 9.7 4 8 4 C8 4.99 8 5.98 8 7 C5.25851328 6.62952882 3.41406801 6.31412056 1.1875 4.625 C0 3 0 3 0 0 Z " fill="#3B9445" transform="translate(538,718)"/>
<path d="M0 0 C1.70884005 1.62339805 3.37446717 3.29319053 5 5 C5 5.66 5 6.32 5 7 C3.02 7 1.04 7 -1 7 C-1.625 5.1875 -1.625 5.1875 -2 3 C-1.34 2.01 -0.68 1.02 0 0 Z " fill="#399342" transform="translate(680,718)"/>
<path d="M0 0 C2.375 0.6875 2.375 0.6875 5 2 C6.3125 4.625 6.3125 4.625 7 7 C1.25 6.25 1.25 6.25 -1 4 C-0.625 1.875 -0.625 1.875 0 0 Z " fill="#399443" transform="translate(509,718)"/>
<path d="M0 0 C0.19491452 1.45736087 0.38069358 2.91594593 0.5625 4.375 C0.66691406 5.18710937 0.77132812 5.99921875 0.87890625 6.8359375 C1 9 1 9 0 11 C-0.99 11 -1.98 11 -3 11 C-3 7.7 -3 4.4 -3 1 C-1 0 -1 0 0 0 Z " fill="#279636" transform="translate(877,706)"/>
<path d="M0 0 C1.65 0.33 3.3 0.66 5 1 C4.67 3.97 4.34 6.94 4 10 C3.67 10 3.34 10 3 10 C2.67 8.02 2.34 6.04 2 4 C1.67 4 1.34 4 1 4 C0.67 6.97 0.34 9.94 0 13 C-0.33 13 -0.66 13 -1 13 C-1.02696365 11.20841511 -1.04637917 9.41671527 -1.0625 7.625 C-1.07410156 6.62726562 -1.08570313 5.62953125 -1.09765625 4.6015625 C-1 2 -1 2 0 0 Z " fill="#3F9D4D" transform="translate(874,704)"/>
<path d="M0 0 C1.47919922 0.06960938 1.47919922 0.06960938 2.98828125 0.140625 C3.98214844 0.17671875 4.97601562 0.2128125 6 0.25 C7.13888672 0.31960938 7.13888672 0.31960938 8.30078125 0.390625 C8.30078125 0.720625 8.30078125 1.050625 8.30078125 1.390625 C3.84578125 1.885625 3.84578125 1.885625 -0.69921875 2.390625 C-0.69921875 3.050625 -0.69921875 3.710625 -0.69921875 4.390625 C1.28078125 4.390625 3.26078125 4.390625 5.30078125 4.390625 C5.30078125 4.720625 5.30078125 5.050625 5.30078125 5.390625 C2.99078125 5.720625 0.68078125 6.050625 -1.69921875 6.390625 C-2.02921875 5.730625 -2.35921875 5.070625 -2.69921875 4.390625 C-3.68921875 4.390625 -4.67921875 4.390625 -5.69921875 4.390625 C-4.03190196 1.4998505 -3.38689549 0.49014407 0 0 Z " fill="#52A45E" transform="translate(515.69921875,697.609375)"/>
<path d="M0 0 C0.33 0 0.66 0 1 0 C0.938125 0.78375 0.87625 1.5675 0.8125 2.375 C0.874375 3.24125 0.93625 4.1075 1 5 C1.99 5.66 2.98 6.32 4 7 C3.01 7.66 2.02 8.32 1 9 C0.34 8.67 -0.32 8.34 -1 8 C-2.87056791 7.7724985 -4.74685958 7.59037189 -6.625 7.4375 C-8.12933594 7.31181641 -8.12933594 7.31181641 -9.6640625 7.18359375 C-10.43492187 7.12300781 -11.20578125 7.06242188 -12 7 C-12 6.67 -12 6.34 -12 6 C-8.7 5.67 -5.4 5.34 -2 5 C-1.34 3.35 -0.68 1.7 0 0 Z " fill="#5CA565" transform="translate(680,706)"/>
<path d="M0 0 C4.1314059 3.72636611 5.84377958 8.50047322 6.1875 14 C6.125625 14.66 6.06375 15.32 6 16 C4.08614468 13.12921701 3.03567048 10.66588344 1.875 7.4375 C1.52179688 6.46683594 1.16859375 5.49617188 0.8046875 4.49609375 C0 2 0 2 0 0 Z " fill="#459648" transform="translate(460,491)"/>
<path d="M0 0 C0.66 0.33 1.32 0.66 2 1 C0.23977508 2.53309913 -1.53353463 4.05118701 -3.3125 5.5625 C-4.79169922 6.83287109 -4.79169922 6.83287109 -6.30078125 8.12890625 C-7.19152344 8.74636719 -8.08226562 9.36382813 -9 10 C-9.99 9.67 -10.98 9.34 -12 9 C-11.34 9 -10.68 9 -10 9 C-10 8.34 -10 7.68 -10 7 C-9.360625 6.896875 -8.72125 6.79375 -8.0625 6.6875 C-7.381875 6.460625 -6.70125 6.23375 -6 6 C-5.67 5.01 -5.34 4.02 -5 3 C-2.5625 1.25 -2.5625 1.25 0 0 Z " fill="#348F3E" transform="translate(389,683)"/>
<path d="M0 0 C0.33 1.32 0.66 2.64 1 4 C-0.42859407 5.03325986 -1.86822383 6.05127634 -3.3125 7.0625 C-4.51326172 7.91521484 -4.51326172 7.91521484 -5.73828125 8.78515625 C-6.48464844 9.18605469 -7.23101562 9.58695313 -8 10 C-8.99 9.67 -9.98 9.34 -11 9 C-10.37351562 8.51789062 -9.74703125 8.03578125 -9.1015625 7.5390625 C-7.87566406 6.59160156 -7.87566406 6.59160156 -6.625 5.625 C-5.81289063 4.99851562 -5.00078125 4.37203125 -4.1640625 3.7265625 C-1.95776805 2.03226506 -1.95776805 2.03226506 0 0 Z " fill="#D3EACC" transform="translate(270,680)"/>
<path d="M0 0 C0.66 0.33 1.32 0.66 2 1 C0.61068357 2.44379943 -0.78676578 3.87977512 -2.1875 5.3125 C-2.96480469 6.11300781 -3.74210937 6.91351562 -4.54296875 7.73828125 C-6.90305695 9.91076308 -9.19647888 11.46130013 -12 13 C-10.44997253 9.11602311 -7.99523379 6.97020381 -4.875 4.25 C-3.96492188 3.45078125 -3.05484375 2.6515625 -2.1171875 1.828125 C-1.06917969 0.92320312 -1.06917969 0.92320312 0 0 Z " fill="#3A8E40" transform="translate(358,670)"/>
<path d="M0 0 C0.99 0 1.98 0 3 0 C3 2.97 3 5.94 3 9 C2.01 9 1.02 9 0 9 C0 6.03 0 3.06 0 0 Z " fill="#269034" transform="translate(787,712)"/>
<path d="M0 0 C1.04449911 3.13349732 0.93423645 3.98968256 0 7 C-1.32 7.33 -2.64 7.66 -4 8 C-4 5.69 -4 3.38 -4 1 C-2.68 0.67 -1.36 0.34 0 0 Z " fill="#2B9538" transform="translate(513,701)"/>
<path d="M0 0 C3.39914975 1.13304992 4.05254451 2.12518475 6 5 C5.01 5.33 4.02 5.66 3 6 C2.34 6.66 1.68 7.32 1 8 C0.34 7.34 -0.32 6.68 -1 6 C-0.625 2.875 -0.625 2.875 0 0 Z " fill="#369240" transform="translate(748,712)"/>
<path d="M0 0 C0.66 0 1.32 0 2 0 C2 3.3 2 6.6 2 10 C1.34 8.68 0.68 7.36 0 6 C-0.99 6 -1.98 6 -3 6 C-2 3 -2 3 0 0 Z " fill="#379445" transform="translate(653,707)"/>
<path d="M0 0 C0.66 0.33 1.32 0.66 2 1 C-0.64 4.3 -3.28 7.6 -6 11 C-6.66 10.34 -7.32 9.68 -8 9 C-5.36 6.03 -2.72 3.06 0 0 Z " fill="#3D9542" transform="translate(337,655)"/>
<path d="M0 0 C1.98 0 3.96 0 6 0 C6 0.66 6 1.32 6 2 C2.49223216 3.60355101 -0.14354879 4.22036864 -4 4 C-3.67 3.34 -3.34 2.68 -3 2 C-2.01 2 -1.02 2 0 2 C0 1.34 0 0.68 0 0 Z " fill="#FAFCF6" transform="translate(229,483)"/>
<path d="M0 0 C-0.3125 1.875 -0.3125 1.875 -1 4 C-1.99 4.66 -2.98 5.32 -4 6 C-4.99 5.01 -5.98 4.02 -7 3 C-6.67 2.34 -6.34 1.68 -6 1 C-3.911361 0.32624548 -2.19636905 0 0 0 Z " fill="#268A38" transform="translate(636,700)"/>
<path d="M0 0 C2.64 0 5.28 0 8 0 C8 0.99 8 1.98 8 3 C5.36 3 2.72 3 0 3 C0 2.01 0 1.02 0 0 Z " fill="#248931" transform="translate(883,699)"/>
<path d="M0 0 C0.99 0.33 1.98 0.66 3 1 C3.29296875 6.95703125 3.29296875 6.95703125 3 9 C2.01 9.99 1.02 10.98 0 12 C0 8.04 0 4.08 0 0 Z " fill="#7DBF65" transform="translate(282,654)"/>
<path d="M0 0 C-0.33 0.99 -0.66 1.98 -1 3 C-3.31 3 -5.62 3 -8 3 C-8 2.01 -8 1.02 -8 0 C-4.71303767 -0.79953138 -3.28976808 -1.09658936 0 0 Z " fill="#238733" transform="translate(786,722)"/>
<path d="M0 0 C-0.99 1.485 -0.99 1.485 -2 3 C-3.9453125 3.29296875 -3.9453125 3.29296875 -6.125 3.1875 C-7.40375 3.125625 -8.6825 3.06375 -10 3 C-10 2.01 -10 1.02 -10 0 C-3.375 -1.125 -3.375 -1.125 0 0 Z " fill="#1E8430" transform="translate(585,714)"/>
<path d="M0 0 C2.20247411 3.30371117 2.09462421 4.2150317 2 8 C2.33 8.99 2.66 9.98 3 11 C1.68 11.33 0.36 11.66 -1 12 C-0.67 8.04 -0.34 4.08 0 0 Z " fill="#228E31" transform="translate(1158,707)"/>
<path d="M0 0 C0.99 0.33 1.98 0.66 3 1 C-1.27828642 4.25149768 -4.73829306 6.58832253 -10 8 C-6.97731777 4.74480375 -3.85903564 2.21689281 0 0 Z " fill="#368B38" transform="translate(318,701)"/>
<path d="M0 0 C2 1 2 1 3 2 C4.68183948 2.23287008 6.3712416 2.41264166 8.0625 2.5625 C9.44115234 2.68818359 9.44115234 2.68818359 10.84765625 2.81640625 C11.91306641 2.90728516 11.91306641 2.90728516 13 3 C13 3.66 13 4.32 13 5 C11.22992286 5.08114106 9.45877902 5.13925505 7.6875 5.1875 C6.70136719 5.22230469 5.71523438 5.25710938 4.69921875 5.29296875 C2 5 2 5 0.14453125 3.48828125 C-0.23316406 2.99714844 -0.61085938 2.50601563 -1 2 C-0.67 1.34 -0.34 0.68 0 0 Z " fill="#57A55F" transform="translate(912,699)"/>
<path d="M0 0 C0.66 0.33 1.32 0.66 2 1 C1.06725891 2.12894876 0.12859878 3.25300876 -0.8125 4.375 C-1.33457031 5.00148438 -1.85664063 5.62796875 -2.39453125 6.2734375 C-4 8 -4 8 -7 10 C-7.66 9.34 -8.32 8.68 -9 8 C-6.03 5.36 -3.06 2.72 0 0 Z " fill="#DFF0DD" transform="translate(306,680)"/>
<path d="M0 0 C0.66 0.99 1.32 1.98 2 3 C1.25 5.3125 1.25 5.3125 0 8 C-0.67795528 9.99620166 -1.34733531 11.99538701 -2 14 C-3.25127906 10.45332822 -2.72285053 8.27746562 -1.5625 4.75 C-1.27503906 3.85796875 -0.98757812 2.9659375 -0.69140625 2.046875 C-0.46324219 1.37140625 -0.23507813 0.6959375 0 0 Z " fill="#C4DD91" transform="translate(74,497)"/>
<path d="M0 0 C0.66 0 1.32 0 2 0 C2 0.66 2 1.32 2 2 C2.66 2 3.32 2 4 2 C2.86695008 5.39914975 1.87481525 6.05254451 -1 8 C-1.04241723 5.66705225 -1.04092937 3.33297433 -1 1 C-0.67 0.67 -0.34 0.34 0 0 Z " fill="#3C9A4A" transform="translate(910,701)"/>
<path d="M0 0 C0 0.66 0 1.32 0 2 C-1.96875 3.5078125 -1.96875 3.5078125 -4.5 5.125 C-5.3353125 5.66382813 -6.170625 6.20265625 -7.03125 6.7578125 C-7.6809375 7.16773438 -8.330625 7.57765625 -9 8 C-9.66 7.67 -10.32 7.34 -11 7 C-9.54634731 5.82750647 -8.08692581 4.66216184 -6.625 3.5 C-5.40683594 2.52546875 -5.40683594 2.52546875 -4.1640625 1.53125 C-2 0 -2 0 0 0 Z " fill="#C7E5C6" transform="translate(324,696)"/>
<path d="M0 0 C2 3 2 3 1.625 5.1875 C1.41875 5.785625 1.2125 6.38375 1 7 C0.34 7 -0.32 7 -1 7 C-1 8.98 -1 10.96 -1 13 C-1.33 13 -1.66 13 -2 13 C-2.05447047 11.58376784 -2.09300508 10.16691809 -2.125 8.75 C-2.14820313 7.96109375 -2.17140625 7.1721875 -2.1953125 6.359375 C-1.9828378 3.79268059 -1.28654105 2.2083933 0 0 Z " fill="#53AB5A" transform="translate(275,527)"/>
<path d="M0 0 C0.66 0 1.32 0 2 0 C1.88637738 1.4800841 1.75877092 2.95910074 1.625 4.4375 C1.52058594 5.67306641 1.52058594 5.67306641 1.4140625 6.93359375 C1.27742187 7.61550781 1.14078125 8.29742188 1 9 C0.01 9.495 0.01 9.495 -1 10 C-1.02689216 8.52093108 -1.04634621 7.04172517 -1.0625 5.5625 C-1.07410156 4.73878906 -1.08570313 3.91507813 -1.09765625 3.06640625 C-1 1 -1 1 0 0 Z " fill="#2B9735" transform="translate(769,706)"/>
<path d="M0 0 C0.99 0.33 1.98 0.66 3 1 C-1.5 5.875 -1.5 5.875 -6 7 C-4.02 4.69 -2.04 2.38 0 0 Z " fill="#F1F8F0" transform="translate(307,681)"/>
<path d="M0 0 C0.33 0 0.66 0 1 0 C1.38281159 5.23175837 0.21854707 8.37802694 -2 13 C-2.66 12.34 -3.32 11.68 -4 11 C-3.69255859 10.18595703 -3.69255859 10.18595703 -3.37890625 9.35546875 C-3.10949219 8.64003906 -2.84007812 7.92460938 -2.5625 7.1875 C-2.29566406 6.47980469 -2.02882813 5.77210938 -1.75390625 5.04296875 C-1.13774814 3.37327604 -0.56280765 1.68842296 0 0 Z " fill="#348B3D" transform="translate(465,580)"/>
<path d="M0 0 C0.99 0 1.98 0 3 0 C3 2.64 3 5.28 3 8 C1.68 8 0.36 8 -1 8 C-0.67 5.36 -0.34 2.72 0 0 Z " fill="#258B32" transform="translate(664,717)"/>
<path d="M0 0 C0.66 0 1.32 0 2 0 C2 2.31 2 4.62 2 7 C1.01 7 0.02 7 -1 7 C-1.04254356 5.00045254 -1.04080783 2.99958364 -1 1 C-0.67 0.67 -0.34 0.34 0 0 Z " fill="#238C2F" transform="translate(1049,717)"/>
<path d="M0 0 C1.485 0.99 1.485 0.99 3 2 C2.67 3.98 2.34 5.96 2 8 C1.01 7.34 0.02 6.68 -1 6 C-0.67 4.02 -0.34 2.04 0 0 Z " fill="#2C8B33" transform="translate(1006,705)"/>
<path d="M0 0 C0.66 0 1.32 0 2 0 C2.99 2.97 3.98 5.94 5 9 C4.01 9 3.02 9 2 9 C0.50178941 5.62902617 0 3.79557881 0 0 Z " fill="#B4D46C" transform="translate(76,567)"/>
<path d="M0 0 C3.31562557 0.55260426 6.15062207 1.16825705 9 3 C9.33 3.99 9.66 4.98 10 6 C5.56909529 4.79157144 3.01887244 3.48331435 0 0 Z " fill="#4DA556" transform="translate(285,569)"/>
<path d="M0 0 C3.63 0.33 7.26 0.66 11 1 C11 1.33 11 1.66 11 2 C8.03 2 5.06 2 2 2 C2 2.66 2 3.32 2 4 C1.01 3.67 0.02 3.34 -1 3 C-0.67 2.01 -0.34 1.02 0 0 Z " fill="#43994E" transform="translate(632,720)"/>
<path d="M0 0 C1.32 0.33 2.64 0.66 4 1 C3.67 2.32 3.34 3.64 3 5 C0.03 4.505 0.03 4.505 -3 4 C-2.01 3.67 -1.02 3.34 0 3 C0 2.01 0 1.02 0 0 Z " fill="#30923E" transform="translate(524,699)"/>
<path d="M0 0 C1.98 0.66 3.96 1.32 6 2 C6 2.66 6 3.32 6 4 C7.32 4.33 8.64 4.66 10 5 C10 5.66 10 6.32 10 7 C5.56541027 5.6062718 3.12621626 3.39417765 0 0 Z " fill="#8ABE4C" transform="translate(139,651)"/>
<path d="M0 0 C0.66 0.99 1.32 1.98 2 3 C0.35 4.32 -1.3 5.64 -3 7 C-3.33 6.01 -3.66 5.02 -4 4 C-2.68 2.68 -1.36 1.36 0 0 Z " fill="#298043" transform="translate(794,512)"/>
<path d="M0 0 C0.556875 0.144375 1.11375 0.28875 1.6875 0.4375 C4.11384195 1.02769128 6.54906345 1.523429 9 2 C9 2.66 9 3.32 9 4 C2.25 3.125 2.25 3.125 0 2 C0 1.34 0 0.68 0 0 Z " fill="#89BF53" transform="translate(164,666)"/>
<path d="M0 0 C1.65 0 3.3 0 5 0 C3.68 0.33 2.36 0.66 1 1 C1.99 1.66 2.98 2.32 4 3 C3.0409375 3.433125 3.0409375 3.433125 2.0625 3.875 C-0.15206079 4.82823451 -0.15206079 4.82823451 -1 7 C-0.67 4.69 -0.34 2.38 0 0 Z " fill="#9CC973" transform="translate(502,621)"/>
<path d="M0 0 C-0.99 0 -1.98 0 -3 0 C-3.33 0.99 -3.66 1.98 -4 3 C-6.0625 3.6875 -6.0625 3.6875 -8 4 C-8.33 3.01 -8.66 2.02 -9 1 C-5.57367167 -0.61798838 -3.61944899 -1.34053666 0 0 Z " fill="#4A925F" transform="translate(921,540)"/>
<path d="M0 0 C-0.99 0.66 -1.98 1.32 -3 2 C-3.33 2.99 -3.66 3.98 -4 5 C-4.66 5 -5.32 5 -6 5 C-5.67 3.68 -5.34 2.36 -5 1 C-6.32 0.67 -7.64 0.34 -9 0 C-5.62182575 -0.84454356 -3.32534757 -1.10844919 0 0 Z " fill="#E3F1CB" transform="translate(229,485)"/>
<path d="M0 0 C5.41538462 -0.36923077 5.41538462 -0.36923077 8.375 1.5 C8.91125 1.995 9.4475 2.49 10 3 C5.82412255 4.39195915 3.86525224 2.82323219 0 1 C0 0.67 0 0.34 0 0 Z " fill="#73B464" transform="translate(373,481)"/>
<path d="M0 0 C-0.33 0.99 -0.66 1.98 -1 3 C-3.97 2.67 -6.94 2.34 -10 2 C-10 1.67 -10 1.34 -10 1 C-6.59437148 0.22157062 -3.49234244 -0.09978121 0 0 Z " fill="#1D8A31" transform="translate(648,721)"/>
<path d="M0 0 C0.66 0.66 1.32 1.32 2 2 C0.33333333 3.66666667 -1.33333333 5.33333333 -3 7 C-3.66 6.34 -4.32 5.68 -5 5 C-3.35 3.35 -1.7 1.7 0 0 Z " fill="#E8F5E9" transform="translate(328,690)"/>
<path d="M0 0 C3.45925163 1.2491742 6.14693203 2.67527795 9 5 C6 6 6 6 3.375 4.75 C1 3 1 3 0 0 Z " fill="#308347" transform="translate(860,505)"/>
<path d="M0 0 C-0.33 0.66 -0.66 1.32 -1 2 C-3.28515625 2.6328125 -3.28515625 2.6328125 -6.0625 3.125 C-6.98160156 3.29257812 -7.90070313 3.46015625 -8.84765625 3.6328125 C-9.91306641 3.81457031 -9.91306641 3.81457031 -11 4 C-11 3.34 -11 2.68 -11 2 C-7.17010894 0.19769832 -4.21878192 -0.19622241 0 0 Z " fill="#92C870" transform="translate(317,477)"/>
</svg>
